<?xml version="1.0" encoding="UTF-8"?>
<svg version="1.1" xmlns="http://www.w3.org/2000/svg" width="1024" height="1024">
<path d="M0 0 C2.27661133 1.11987305 2.27661133 1.11987305 4.58203125 2.51171875 C5.43216797 3.02283203 6.28230469 3.53394531 7.15820312 4.06054688 C8.03412109 4.59744141 8.91003906 5.13433594 9.8125 5.6875 C11.10897461 6.46383789 11.10897461 6.46383789 12.43164062 7.25585938 C14.98448376 8.80297865 17.51178161 10.35023028 20 12 C20.65159151 12.3785721 21.30318302 12.7571442 21.97451973 13.14718819 C27.53970222 16.70980322 27.53970222 16.70980322 28.7463522 20.09199619 C29.03248714 22.62732523 29.06689422 25.05897661 29.01586914 27.61010742 C29.02834057 28.56872901 29.040812 29.5273506 29.05366135 30.51502132 C29.0854665 33.71284553 29.06033817 36.90762435 29.03515625 40.10546875 C29.04611144 42.38387879 29.06048605 44.66227462 29.07804871 46.94064331 C29.11470032 53.08221284 29.10101253 59.22268871 29.07521057 65.36427689 C29.05400909 71.7414864 29.06941542 78.11862641 29.07910156 84.49584961 C29.08929642 94.90788409 29.06728903 105.31948467 29.02978516 115.73144531 C28.99228167 126.66569669 29.02703221 137.5973114 29.12035656 148.53118801 C29.1929472 157.06539282 29.22977528 165.59908978 29.23351002 174.13360691 C29.23648553 179.07276685 29.2558709 184.01049483 29.31668091 188.9493103 C29.37173673 193.54848738 29.37427828 198.14470515 29.33584023 202.74402237 C29.33078275 204.40978329 29.34434047 206.07572777 29.37849998 207.74114609 C29.61839516 220.17314647 29.61839516 220.17314647 25.58724976 224.723526 C22.80683248 226.77704216 20.07185603 228.42581795 17 230 C15.80784727 230.75559722 14.62164108 231.52077717 13.4453125 232.30078125 C12.34960938 232.96464844 11.25390625 233.62851562 10.125 234.3125 C0.59234046 240.15824 -8.72206733 246.33803487 -18.06005859 252.48754883 C-18.6776152 252.89379486 -19.29517181 253.30004089 -19.93144226 253.71859741 C-21.62969185 254.83603328 -23.32696204 255.95495719 -25.02416992 257.07397461 C-26.91449095 258.29743368 -28.82711365 259.48759784 -30.7668457 260.63110352 C-33.09321469 261.93767261 -33.09321469 261.93767261 -35 264 C-39.85499643 267.30409479 -44.89784054 270.33938977 -49.921875 273.37890625 C-61.52762555 280.40333391 -72.89849768 287.74922209 -84.23388672 295.20117188 C-88.05738925 297.68762965 -91.91953433 300.11149727 -95.78735352 302.52832031 C-98.07933716 303.94789354 -98.07933716 303.94789354 -100 306 C-101.73288823 307.04961854 -103.48647546 308.06521273 -105.25 309.0625 C-110.04016454 311.82117307 -114.73135923 314.6890526 -119.375 317.6875 C-119.94508789 318.05560791 -120.51517578 318.42371582 -121.10253906 318.80297852 C-123.85973915 320.59129108 -126.57857284 322.40763086 -129.265625 324.30078125 C-132 326 -132 326 -134.375 325.5 C-135.674375 324.7575 -135.674375 324.7575 -137 324 C-138.37174439 323.30602695 -139.74699572 322.61895832 -141.125 321.9375 C-141.78757812 321.59589844 -142.45015625 321.25429688 -143.1328125 320.90234375 C-145.14664322 319.87997124 -145.14664322 319.87997124 -148 319 C-147.67 318.67 -147.34 318.34 -147 318 C-147.68288086 317.60844727 -148.36576172 317.21689453 -149.06933594 316.81347656 C-162.91465983 308.86806959 -176.70756514 300.85125207 -190.36743164 292.58959961 C-200.77156552 286.30736687 -211.21010966 280.08372096 -221.66500854 273.88644409 C-231.43673421 268.09371121 -241.20343694 262.29338407 -250.9375 256.4375 C-257.40354834 252.54847594 -263.88503784 248.6880093 -270.39868164 244.87915039 C-274.56353798 242.44232384 -278.70937357 239.97653856 -282.84375 237.48828125 C-284.34349365 236.5900061 -284.34349365 236.5900061 -285.87353516 235.67358398 C-287.84511322 234.49214461 -289.81364775 233.30560841 -291.77880859 232.11352539 C-292.67422363 231.57848389 -293.56963867 231.04344238 -294.4921875 230.4921875 C-295.28995605 230.01120605 -296.08772461 229.53022461 -296.90966797 229.03466797 C-299.05937912 227.77819541 -299.05937912 227.77819541 -302 228 C-302 227.34 -302 226.68 -302 226 C-304.31 224.68 -306.62 223.36 -309 222 C-309.44422597 196.37481669 -309.77907248 170.75021176 -309.98443127 145.1219511 C-310.08232791 133.22151021 -310.21573172 121.32346399 -310.43334961 109.42456055 C-310.62298251 99.0508569 -310.74536126 88.67888728 -310.7876814 78.30349857 C-310.81241701 72.81075579 -310.87033201 67.32297238 -311.00887108 61.83182335 C-311.13837512 56.65660423 -311.17753448 51.48835586 -311.14904594 46.3116703 C-311.15425173 44.41792413 -311.19178309 42.52393294 -311.26490402 40.6315918 C-311.69210443 29.0001877 -311.69210443 29.0001877 -309 24 C-304.33161756 19.39551249 -298.39707964 16.80172259 -292.474033 14.17777503 C-288.42190469 12.24874032 -284.73298156 9.79022867 -281 7.3125 C-274.43037752 3 -274.43037752 3 -271 3 C-271 3.66 -271 4.32 -271 5 C-270.27361328 5.27223389 -269.54722656 5.54446777 -268.79882812 5.82495117 C-266.08834944 6.96290772 -263.7215245 8.2646457 -261.21875 9.80078125 C-259.84759033 10.63875244 -259.84759033 10.63875244 -258.44873047 11.49365234 C-257.47564941 12.09387207 -256.50256836 12.6940918 -255.5 13.3125 C-254.48695801 13.93334473 -253.47391602 14.55418945 -252.43017578 15.19384766 C-249.28375075 17.1243528 -246.14119985 19.06100599 -243 21 C-242.03674805 21.59441895 -241.07349609 22.18883789 -240.08105469 22.80126953 C-235.73574055 25.4847844 -231.3934971 28.17316989 -227.0546875 30.8671875 C-222.16136772 33.90379427 -217.25666773 36.92174834 -212.35107422 39.93847656 C-209.08941414 41.94499395 -205.8295935 43.95446472 -202.5703125 45.96484375 C-192.2411353 52.33279333 -181.90905402 58.69018305 -171.48046875 64.89453125 C-168.83474226 66.48104341 -166.22065963 68.1129603 -163.61328125 69.76171875 C-162.8754541 70.22787598 -162.13762695 70.6940332 -161.37744141 71.17431641 C-159.9486901 72.07998864 -158.52245232 72.98964192 -157.09912109 73.90380859 C-153.80949527 76.21068371 -153.80949527 76.21068371 -150 77 C-149.18789063 77.84691406 -149.18789063 77.84691406 -148.359375 78.7109375 C-145.30423417 81.67503109 -141.93828552 83.53854594 -138.25 85.625 C-132.29723537 89.05262164 -126.42605961 92.57141604 -120.625 96.25 C-114.54654817 100.09341971 -108.36641435 103.64997073 -102 107 C-99.01584578 105.21654158 -96.03858697 103.4218827 -93.0625 101.625 C-92.21236328 101.11710937 -91.36222656 100.60921875 -90.48632812 100.0859375 C-89.67744141 99.59609375 -88.86855469 99.10625 -88.03515625 98.6015625 C-87.2862915 98.15119629 -86.53742676 97.70083008 -85.76586914 97.23681641 C-83.85544089 96.10758726 -83.85544089 96.10758726 -83 94 C-83.64839844 93.77570313 -84.29679688 93.55140625 -84.96484375 93.3203125 C-89.06837241 91.53525113 -92.76283906 89.22798643 -96.5625 86.875 C-97.35446777 86.38797607 -98.14643555 85.90095215 -98.96240234 85.39916992 C-105.4098162 81.41348402 -111.74410977 77.28099155 -118 73 C-114.76444902 69.43280504 -111.08907245 67.02745061 -107 64.5625 C-105.55365545 63.67485654 -104.10839197 62.7854498 -102.6640625 61.89453125 C-101.90254883 61.4248291 -101.14103516 60.95512695 -100.35644531 60.47119141 C-96.3255049 57.95456822 -92.35201704 55.35068956 -88.375 52.75 C-81.28041938 48.1178255 -74.15486002 43.53850243 -67 39 C-57.45874085 32.94464825 -47.97220657 26.80914795 -38.50732422 20.63525391 C-35.90280694 18.93661158 -33.29732578 17.23945903 -30.69140625 15.54296875 C-29.81766357 14.97408936 -28.9439209 14.40520996 -28.04370117 13.8190918 C-26.33028318 12.70532997 -24.61563584 11.59345669 -22.8996582 10.48364258 C-19.40095947 8.22064403 -15.91047663 5.95418834 -12.4765625 3.59375 C-11.51492188 2.9440625 -10.55328125 2.294375 -9.5625 1.625 C-8.78003906 1.08101563 -7.99757813 0.53703125 -7.19140625 -0.0234375 C-4.32090859 -1.3026254 -3.00672111 -0.81485134 0 0 Z " fill="#EAF3FE" transform="translate(651,400)"/>
<path d="M0 0 C1.91407369 0.94554091 3.78456568 1.98059094 5.625 3.0625 C6.49813843 3.5716394 6.49813843 3.5716394 7.38891602 4.09106445 C9.59842683 5.38440318 11.79955295 6.69129705 14 8 C15.44560303 8.85899902 15.44560303 8.85899902 16.92041016 9.73535156 C18.50088135 10.67459473 18.50088135 10.67459473 20.11328125 11.6328125 C21.80482602 12.63792616 23.49637279 13.64303647 25.1880188 14.64797974 C26.36060167 15.34471409 27.53302437 16.0417181 28.70529175 16.73898315 C37.57481892 22.01255455 46.50929476 27.15724699 55.5078125 32.20800781 C65.4009436 37.76775566 75.19289114 43.49674019 84.98388672 49.23388672 C89.98538635 52.16256151 94.99299914 55.08074405 100 58 C102.00653404 59.17053243 104.01304447 60.34110532 106.01953125 61.51171875 C109.95393232 63.80683936 113.88885909 66.10105471 117.82421875 68.39453125 C126.23605079 73.29780122 134.64684545 78.20268151 143.04296875 83.1328125 C145.48695795 84.56774448 147.93095959 86.00265526 150.375 87.4375 C150.98570343 87.79606079 151.59640686 88.15462158 152.22561646 88.52404785 C160.83559464 93.57756713 169.469529 98.58715238 178.125 103.5625 C188.3634667 109.44808565 198.53539124 115.43863902 208.68164062 121.48120117 C215.66084406 125.63324803 222.67529756 129.70022557 229.7890625 133.6171875 C232 135 232 135 233 137 C234.66266137 137.67659395 236.33036128 138.34081204 238 139 C240.28096733 140.32155572 242.51974571 141.66169983 244.75 143.0625 C245.33910156 143.42666016 245.92820312 143.79082031 246.53515625 144.16601562 C250.84776311 146.84776311 250.84776311 146.84776311 252 148 C252.09558036 149.44213999 252.12188394 150.88894079 252.12025452 152.33424377 C252.12231651 153.73726242 252.12231651 153.73726242 252.12442017 155.16862488 C252.12082489 156.20296158 252.11722961 157.23729828 252.11352539 158.30297852 C252.11367142 159.38577087 252.11381744 160.46856323 252.1139679 161.58416748 C252.11326823 165.18243374 252.10547333 168.78064897 252.09765625 172.37890625 C252.09579226 174.86612418 252.09436827 177.35334248 252.09336853 179.84056091 C252.0899335 185.73021191 252.08204277 191.6198439 252.07201904 197.50948709 C252.05976246 204.87025374 252.05437791 212.23102264 252.04882812 219.59179688 C252.03808815 232.72787398 252.02120089 245.86393583 252 259 C252.66 259.33 253.32 259.66 254 260 C253.34 260 252.68 260 252 260 C252 281.12 252 302.24 252 324 C252.66 324.33 253.32 324.66 254 325 C253.34 325 252.68 325 252 325 C252.03029297 325.95366455 252.06058594 326.9073291 252.09179688 327.88989258 C252.20408931 331.42894012 252.31576131 334.96800701 252.42724609 338.50708008 C252.47557937 340.03866095 252.52408078 341.57023653 252.57275391 343.10180664 C252.64269534 345.30353445 252.71203162 347.50528061 252.78125 349.70703125 C252.81406067 350.73374687 252.81406067 350.73374687 252.84753418 351.78120422 C253.34931543 367.83252499 253 383.94064981 253 400 C253.084641 401.94244587 253.16956865 403.88488003 253.25650024 405.82722473 C253.38974084 409.11899462 253.47145603 412.41133995 253.54931641 415.70483398 C253.59963417 417.43852452 253.66790379 419.17179003 253.75439453 420.90405273 C254.45227884 435.26815381 254.45227884 435.26815381 251.07226562 439.29882812 C248.4446695 440.87620628 245.86966582 441.93340516 243 443 C241.35939132 443.94117083 239.73864504 444.91789142 238.140625 445.9296875 C229.74256619 450.99040422 221.32526406 455.99291906 212.79296875 460.82421875 C207.9719654 463.57175704 203.20913372 466.41792713 198.4375 469.25 C191.1217026 473.59053915 183.77284408 477.86338753 176.375 482.0625 C168.75330657 486.39204136 161.21405225 490.84034354 153.71020508 495.37060547 C147.35978595 499.19898162 140.97131386 502.95777614 134.5625 506.6875 C133.57306396 507.26338867 132.58362793 507.83927734 131.56420898 508.43261719 C129.48245326 509.6440969 127.40066523 510.8555211 125.31884766 512.06689453 C119.29099908 515.5778924 113.26933098 519.09942264 107.25 522.625 C106.32048523 523.16932175 106.32048523 523.16932175 105.37219238 523.72463989 C97.82480521 528.14627793 90.30037104 532.60308881 82.8125 537.125 C74.08545217 542.39416095 65.26289944 547.4910105 56.42553711 552.57250977 C49.73982784 556.41697783 43.07256843 560.28915851 36.43139648 564.20996094 C30.09106893 567.95189541 23.73419414 571.66523084 17.375 575.375 C15.84431885 576.26844116 15.84431885 576.26844116 14.28271484 577.17993164 C12.36910215 578.29591505 10.45305297 579.40773478 8.53417969 580.51464844 C6.97654361 581.42762126 5.43182208 582.36364449 3.91113281 583.33691406 C-0.41008135 586.0583695 -0.41008135 586.0583695 -3.38354492 585.76416016 C-6.22657278 584.9338273 -8.41942091 583.80892996 -10.96484375 582.296875 C-11.91891113 581.73500488 -12.87297852 581.17313477 -13.85595703 580.59423828 C-14.87286621 579.98563965 -15.88977539 579.37704102 -16.9375 578.75 C-17.99565918 578.12464355 -19.05381836 577.49928711 -20.14404297 576.85498047 C-23.43318252 574.90968517 -26.71668953 572.95511363 -30 571 C-32.94383473 569.25623885 -35.8891065 567.51492961 -38.8347168 565.77416992 C-40.6922082 564.67631758 -42.5491439 563.57752446 -44.40551758 562.4777832 C-49.28864445 559.58764263 -54.18808044 556.73470325 -59.125 553.9375 C-64.48782665 550.89287993 -69.78153954 547.74680253 -75.0625 544.5625 C-83.73530592 539.33470394 -92.45250763 534.18542399 -101.1875 529.0625 C-101.80851593 528.69778595 -102.42953186 528.3330719 -103.06936646 527.95730591 C-114.39196637 521.22053549 -114.39196637 521.22053549 -126 515 C-127.33735706 514.08921372 -128.6700017 513.17149882 -130 512.25 C-133.24357876 510.06682199 -136.47773588 508.19508961 -140 506.5 C-144.26944989 504.44483002 -148.08705327 502.02045632 -151.984375 499.3359375 C-154.10548489 497.87140325 -154.10548489 497.87140325 -157 496.5 C-159.49056512 495.25471744 -161.56699294 493.96576034 -163.84375 492.390625 C-169.28995239 488.73049544 -174.96024963 485.50603459 -180.67230225 482.28189087 C-183.79867162 480.51678939 -186.91843857 478.74007654 -190.0390625 476.96484375 C-190.65049103 476.61737595 -191.26191956 476.26990814 -191.89187622 475.91191101 C-198.57547766 472.11076951 -205.20283429 468.21832675 -211.81542969 464.29541016 C-215.2557945 462.25533688 -218.70006468 460.22187887 -222.14379883 458.1875 C-224.03187662 457.07198639 -225.91973854 455.95610731 -227.80737305 454.83984375 C-232.22615067 452.22706895 -236.64691841 449.6178428 -241.07421875 447.01953125 C-241.85603516 446.560625 -242.63785156 446.10171875 -243.44335938 445.62890625 C-244.89862534 444.77525154 -246.35432824 443.92234107 -247.81054688 443.0703125 C-250.58934875 441.44030459 -253.31856682 439.78762212 -256 438 C-256.44824219 436.03222656 -256.44824219 436.03222656 -256.546875 433.640625 C-256.58683594 432.77179688 -256.62679688 431.90296875 -256.66796875 431.0078125 C-256.69503906 430.09773438 -256.72210938 429.18765625 -256.75 428.25 C-256.79253906 427.35539062 -256.83507812 426.46078125 -256.87890625 425.5390625 C-257.06456168 420.87704831 -257.00297535 416.58937206 -256 412 C-256.66 411.67 -257.32 411.34 -258 411 C-257.34 411 -256.68 411 -256 411 C-256.165 409.948125 -256.33 408.89625 -256.5 407.8125 C-256.89688605 404.78624388 -257 402.03209224 -257 399 C-257.495 397.515 -257.495 397.515 -258 396 C-257.34 396 -256.68 396 -256 396 C-256.16226074 394.71915527 -256.32452148 393.43831055 -256.49169922 392.11865234 C-257.04686351 387.0998937 -257.14469325 382.14686128 -257.1328125 377.1015625 C-257.13376923 376.18595551 -257.13472595 375.27034851 -257.13571167 374.32699585 C-257.13638788 372.40256684 -257.13457289 370.47813548 -257.13037109 368.55371094 C-257.12502736 365.6399207 -257.13032887 362.72628545 -257.13671875 359.8125 C-257.14250988 341.77312258 -257.14250988 341.77312258 -256 333 C-256.66 332.67 -257.32 332.34 -258 332 C-257.34 332 -256.68 332 -256 332 C-256.14194764 329.93722893 -256.28872216 327.87478969 -256.4375 325.8125 C-256.51871094 324.66394531 -256.59992188 323.51539063 -256.68359375 322.33203125 C-256.933073 319.07898074 -256.933073 319.07898074 -257.5625 316.23828125 C-258.08769468 313.55134778 -257.62623917 311.64412093 -257 309 C-257 308.01 -257 307.02 -257 306 C-257 301.19554123 -256.84359949 296.74524711 -256 292 C-256.66 292 -257.32 292 -258 292 C-257.83757812 291.35289062 -257.67515625 290.70578125 -257.5078125 290.0390625 C-256.85386556 286.12544156 -256.8522965 282.3353166 -256.875 278.375 C-256.8762085 277.57755371 -256.87741699 276.78010742 -256.87866211 275.95849609 C-256.91359424 270.64988736 -257.20130029 265.43433107 -257.87890625 260.1640625 C-258.00807674 257.85566079 -257.62961644 256.21240221 -257 254 C-256.79104637 252.58633842 -256.60309594 251.16939377 -256.4375 249.75 C-256.293125 248.5125 -256.14875 247.275 -256 246 C-256.66 246 -257.32 246 -258 246 C-257.7215625 244.6078125 -257.7215625 244.6078125 -257.4375 243.1875 C-256.75876119 239.98656229 -256.75876119 239.98656229 -258 237 C-257.67 236.67 -257.34 236.34 -257 236 C-256.9008082 234.38916255 -256.8692018 232.77404356 -256.8671875 231.16015625 C-256.86589844 230.17982422 -256.86460937 229.19949219 -256.86328125 228.18945312 C-256.86714844 227.15755859 -256.87101562 226.12566406 -256.875 225.0625 C-256.87113281 224.03447266 -256.86726563 223.00644531 -256.86328125 221.94726562 C-256.86457031 220.96564453 -256.86585938 219.98402344 -256.8671875 218.97265625 C-256.86831543 218.06781494 -256.86944336 217.16297363 -256.87060547 216.23071289 C-256.85503424 213.96104141 -256.85503424 213.96104141 -258 212 C-257.34 212 -256.68 212 -256 212 C-256.0721875 211.35675781 -256.144375 210.71351563 -256.21875 210.05078125 C-257.25202643 199.99068715 -257.57093425 190.01470583 -256 180 C-256.66 179.67 -257.32 179.34 -258 179 C-257.75334595 178.18692383 -257.75334595 178.18692383 -257.50170898 177.35742188 C-256.91361615 174.59410102 -256.92194913 172.10629619 -256.97265625 169.28125 C-256.98490234 168.18425781 -256.99714844 167.08726562 -257.00976562 165.95703125 C-257.04492283 163.65228087 -257.08398567 161.34758676 -257.12695312 159.04296875 C-257.13791016 157.94597656 -257.14886719 156.84898437 -257.16015625 155.71875 C-257.17699463 154.71779297 -257.19383301 153.71683594 -257.21118164 152.68554688 C-256.98262087 149.77899377 -256.70482846 148.35708127 -255 146 C-252.42822266 144.17578125 -252.42822266 144.17578125 -249.1640625 142.3125 C-248.28446617 141.80400261 -248.28446617 141.80400261 -247.38710022 141.28523254 C-245.47176699 140.1805068 -243.54848066 139.09046669 -241.625 138 C-240.29203076 137.23387197 -238.95975942 136.46652845 -237.62817383 135.69799805 C-235.62531103 134.54225236 -233.62205434 133.38727004 -231.61647034 132.23625183 C-226.26432721 129.16421656 -220.96538954 126.01045473 -215.6875 122.8125 C-205.54607465 116.69501822 -195.31241332 110.73860672 -185.07324219 104.78662109 C-180.00517848 101.84031586 -174.93958061 98.88978792 -169.875 95.9375 C-168.88016602 95.35758301 -167.88533203 94.77766602 -166.86035156 94.18017578 C-160.2267899 90.30933564 -153.60888014 86.41280876 -147 82.5 C-134.35600485 75.01408198 -121.65738114 67.62261786 -108.95898438 60.22949219 C-97.49868595 53.55598722 -86.05165089 46.86185017 -74.64013672 40.10522461 C-66.93953861 35.54827277 -59.22128135 31.02176785 -51.5 26.5 C-42.59587126 21.2848329 -33.69665097 16.06166548 -24.8125 10.8125 C-23.95914063 10.30847656 -23.10578125 9.80445313 -22.2265625 9.28515625 C-21.41574219 8.805625 -20.60492188 8.32609375 -19.76953125 7.83203125 C-18.98787598 7.37393066 -18.2062207 6.91583008 -17.40087891 6.44384766 C-15.69584849 5.41847142 -14.01241136 4.35680497 -12.34521484 3.27099609 C-11.47203613 2.71105957 -10.59885742 2.15112305 -9.69921875 1.57421875 C-8.91764404 1.05819092 -8.13606934 0.54216309 -7.33081055 0.01049805 C-4.41497965 -1.25362933 -2.99353826 -0.93665693 0 0 Z M-5.40991211 55.07299805 C-6.35616455 55.63027588 -7.30241699 56.18755371 -8.27734375 56.76171875 C-9.33775879 57.37990479 -10.39817383 57.99809082 -11.49072266 58.63500977 C-12.63980214 59.318915 -13.78872416 60.00308486 -14.9375 60.6875 C-16.12241035 61.38353826 -17.30779933 62.07876234 -18.49365234 62.77319336 C-26.19585424 67.29419632 -33.85973116 71.88140008 -41.50390625 76.49975586 C-49.14141271 81.11022067 -56.85413447 85.58825291 -64.56860352 90.06835938 C-69.61016948 93.00216813 -74.61982229 95.96517558 -79.5625 99.0625 C-85.11675293 102.52204782 -90.79443469 105.73454497 -96.5 108.9375 C-105.46906633 113.97458576 -114.37949835 119.10442579 -123.25 124.3125 C-123.85853821 124.66968109 -124.46707642 125.02686218 -125.09405518 125.39486694 C-131.75350099 129.30578344 -138.4023476 133.23422886 -145.0390625 137.18359375 C-147.31764293 138.53917252 -149.59630342 139.89461645 -151.875 141.25 C-152.98085449 141.90782471 -154.08670898 142.56564941 -155.22607422 143.2434082 C-163.49956449 148.14895602 -171.85002595 152.90452727 -180.2409668 157.60571289 C-186.45093363 161.09394219 -192.55340818 164.70695754 -198.57421875 168.51171875 C-200.67848976 169.80274492 -202.79037924 170.9068192 -205 172 C-206.485 172.99 -206.485 172.99 -208 174 C-208.33156893 177.11926229 -208.46533857 180.04504033 -208.47515869 183.1706543 C-208.48971658 184.1331094 -208.50427448 185.0955645 -208.51927352 186.08718491 C-208.56424794 189.33285966 -208.58737315 192.57831887 -208.61035156 195.82421875 C-208.63731909 198.14324679 -208.66536984 200.46226246 -208.69442749 202.78126526 C-208.78355818 210.41653761 -208.8392816 218.05189289 -208.890625 225.6875 C-208.89986842 226.98584274 -208.90911184 228.28418549 -208.91863537 229.62187195 C-209.00536105 241.8641798 -209.08125214 254.10649644 -209.12720108 266.34902954 C-209.13802966 269.18564923 -209.1489973 272.02226831 -209.16015625 274.85888672 C-209.16291902 275.56390831 -209.1656818 276.26892991 -209.16852829 276.99531579 C-209.2151553 288.40595636 -209.33053696 299.81483357 -209.47400406 311.22462475 C-209.62013722 322.94296459 -209.70180051 334.66040058 -209.72151542 346.37964535 C-209.73508398 352.95854946 -209.77725547 359.5343671 -209.88910675 366.11239624 C-209.99298912 372.30577772 -210.01604509 378.49428443 -209.97771072 384.68836784 C-209.97759786 386.95806951 -210.00647989 389.22799093 -210.06686783 391.49688911 C-210.7693145 402.87882622 -210.7693145 402.87882622 -206.35628796 412.86279297 C-202.32969497 416.08752972 -197.92240644 418.1682693 -193.15922976 420.08049107 C-189.76852467 421.52442431 -186.73633865 423.42259315 -183.59375 425.34375 C-182.41626993 426.03709764 -181.23749075 426.7282483 -180.05688477 427.41625977 C-179.47528595 427.75698517 -178.89368713 428.09771057 -178.29446411 428.44876099 C-177.40620438 428.9691243 -177.40620438 428.9691243 -176.5 429.5 C-168.51522436 434.17802648 -160.53356437 438.8611335 -152.5625 443.5625 C-147.93800503 446.28913873 -143.29578344 448.97803215 -138.625 451.625 C-131.19222246 455.8516481 -123.8514822 460.23133107 -116.50262451 464.60165405 C-107.78957083 469.78084022 -99.03833306 474.88699936 -90.25 479.9375 C-83.02236551 484.09128846 -75.8146788 488.26615368 -68.68530273 492.58642578 C-62.93397025 496.06315176 -57.12253832 499.43505716 -51.3125 502.8125 C-44.51433401 506.76435295 -37.73343385 510.7396321 -31.0012207 514.80297852 C-27.77592205 516.74949112 -24.54190332 518.68126164 -21.30761719 520.61279297 C-19.76210018 521.54186911 -18.22109046 522.47848239 -16.68457031 523.42236328 C-14.50857986 524.75837462 -12.31897736 526.06880503 -10.125 527.375 C-9.48884766 527.77501221 -8.85269531 528.17502441 -8.19726562 528.5871582 C-5.15727739 530.36525681 -3.61064498 531.15321959 -0.12963867 530.27978516 C2.93969238 529.02466125 5.62901088 527.60188206 8.45703125 525.875 C9.47821045 525.25608887 10.49938965 524.63717773 11.55151367 523.99951172 C12.62763916 523.33967285 13.70376465 522.67983398 14.8125 522 C17.07518348 520.62704803 19.33820488 519.25465283 21.6015625 517.8828125 C22.70145508 517.21411133 23.80134766 516.54541016 24.93457031 515.85644531 C28.83281906 513.49563905 32.75393982 511.17633922 36.6875 508.875 C38.00654653 508.10162409 39.32555624 507.32818537 40.64453125 506.5546875 C41.32467285 506.15604492 42.00481445 505.75740234 42.70556641 505.34667969 C47.43311489 502.57192363 52.15411974 499.78608073 56.875 497 C57.83365967 496.43522949 58.79231934 495.87045898 59.7800293 495.28857422 C60.6750415 494.76021973 61.57005371 494.23186523 62.4921875 493.6875 C63.28995605 493.21699219 64.08772461 492.74648438 64.90966797 492.26171875 C66.63496744 491.22033266 68.32322908 490.11784728 70 489 C71.25089712 488.28720402 72.50944578 487.58774633 73.7734375 486.8984375 C74.88912109 486.28548828 74.88912109 486.28548828 76.02734375 485.66015625 C77.55252115 484.82524217 79.07851812 483.99182288 80.60546875 483.16015625 C86.3744716 479.98573049 91.97207988 476.57463757 97.56835938 473.10595703 C102.73522884 469.91870066 107.98583324 466.87303721 113.23101807 463.81719971 C122.39668595 458.47638913 131.54196549 453.10551157 140.625 447.625 C147.48711964 443.48664814 154.39403647 439.4366442 161.33935547 435.43969727 C169.85420858 430.52903801 178.30171723 425.50499844 186.75024414 420.48144531 C187.84844482 419.82885742 188.94664551 419.17626953 190.078125 418.50390625 C191.05168945 417.92455322 192.02525391 417.3452002 193.02832031 416.74829102 C196.33589242 414.80238863 199.66674953 412.90155982 203 411 C203 409.97491837 203 408.94983673 203 407.89369202 C203 310.7766856 203 310.7766856 203.02565002 305.23616028 C203.03895237 302.09063507 203.04711546 298.94510364 203.05493164 295.79956055 C203.05999358 294.13614274 203.06684096 292.47272945 203.07543945 290.80932617 C203.08750507 288.41063347 203.09322513 286.01199864 203.09765625 283.61328125 C203.10539818 282.49147209 203.10539818 282.49147209 203.11329651 281.34700012 C203.1134923 279.5642667 203.06198801 277.7816554 203 276 C202.67 275.67 202.34 275.34 202 275 C202.144375 274.443125 202.28875 273.88625 202.4375 273.3125 C203.12358573 270.49192532 203.06428799 267.89295951 203 265 C203 262.74991086 203.00675735 260.49982502 203.0111084 258.2497406 C203.02953176 248.56950262 203.04268258 238.88926705 203.05181217 229.20901585 C203.05704077 223.84628548 203.06413944 218.48357089 203.07543945 213.12084961 C203.08627596 207.94556968 203.09227832 202.77030497 203.09487724 197.59501457 C203.09672975 195.6177846 203.10034705 193.6405555 203.10573006 191.66333199 C203.11295082 188.90257058 203.11399051 186.14187279 203.11352539 183.38110352 C203.11712067 182.55764938 203.12071594 181.73419525 203.12442017 180.88578796 C203.21719732 176.81161738 203.21719732 176.81161738 202 173 C200.23408113 171.99083967 200.23408113 171.99083967 198 171 C193.20912692 168.67591689 188.63678553 166.09165685 184.0625 163.375 C183.34280029 162.94783691 182.62310059 162.52067383 181.8815918 162.08056641 C180.36952951 161.18278457 178.85756895 160.28483139 177.34570312 159.38671875 C173.34931297 157.02415671 169.33131216 154.69915179 165.3125 152.375 C164.10484985 151.67552246 164.10484985 151.67552246 162.87280273 150.96191406 C159.39958179 148.95291148 155.9236847 146.95013892 152.42578125 144.984375 C144.10594431 140.29769762 135.99896574 135.32207269 127.93017578 130.21533203 C127.06118652 129.66989746 126.19219727 129.12446289 125.296875 128.5625 C124.12656738 127.82193359 124.12656738 127.82193359 122.93261719 127.06640625 C121.07603491 125.83895862 121.07603491 125.83895862 119 126 C117.32362704 124.6788909 115.65872931 123.34319493 114 122 C110.34066422 119.69709634 106.59348092 117.55204109 102.84399414 115.39941406 C101.06691403 114.37753821 99.29603486 113.34547809 97.52539062 112.3125 C95.82866211 111.33410156 95.82866211 111.33410156 94.09765625 110.3359375 C93.07164307 109.74345215 92.04562988 109.1509668 90.98852539 108.54052734 C88.04335274 107.0223475 85.1370044 106.04129685 82 105 C80.63266335 103.70156015 79.29965946 102.36617746 78 101 C76.12108598 99.81302139 74.19754114 98.69566316 72.25 97.625 C71.00699743 96.93245048 69.76488162 96.23830804 68.5234375 95.54296875 C67.82057617 95.15028809 67.11771484 94.75760742 66.39355469 94.35302734 C61.52382623 91.60026979 56.70349851 88.76173023 51.875 85.9375 C49.89324766 84.77991626 47.9114771 83.6223637 45.9296875 82.46484375 C44.94895264 81.89121094 43.96821777 81.31757813 42.95776367 80.7265625 C41.00680286 79.58771026 39.05387767 78.45221563 37.09887695 77.3203125 C31.63140764 74.15050105 26.20196718 70.92660677 20.80859375 67.6328125 C20.20368103 67.26340042 19.59876831 66.89398834 18.9755249 66.51338196 C16.49245616 64.99563249 14.01021414 63.47655984 11.5300293 61.95410156 C9.68700175 60.82350284 7.84173056 59.69664516 5.99609375 58.5703125 C4.37465454 57.57668701 4.37465454 57.57668701 2.72045898 56.56298828 C-1.19953381 54.12606648 -1.19953381 54.12606648 -5.40991211 55.07299805 Z " fill="#3597FE" transform="translate(514,228)"/>
<path d="M0 0 C2.27661133 1.11987305 2.27661133 1.11987305 4.58203125 2.51171875 C5.43216797 3.02283203 6.28230469 3.53394531 7.15820312 4.06054688 C8.03412109 4.59744141 8.91003906 5.13433594 9.8125 5.6875 C11.10897461 6.46383789 11.10897461 6.46383789 12.43164062 7.25585938 C14.98448376 8.80297865 17.51178161 10.35023028 20 12 C20.65159151 12.3785721 21.30318302 12.7571442 21.97451973 13.14718819 C27.53970222 16.70980322 27.53970222 16.70980322 28.7463522 20.09199619 C29.03248714 22.62732523 29.06689422 25.05897661 29.01586914 27.61010742 C29.02834057 28.56872901 29.040812 29.5273506 29.05366135 30.51502132 C29.0854665 33.71284553 29.06033817 36.90762435 29.03515625 40.10546875 C29.04611144 42.38387879 29.06048605 44.66227462 29.07804871 46.94064331 C29.11470032 53.08221284 29.10101253 59.22268871 29.07521057 65.36427689 C29.05400909 71.7414864 29.06941542 78.11862641 29.07910156 84.49584961 C29.08929642 94.90788409 29.06728903 105.31948467 29.02978516 115.73144531 C28.99228167 126.66569669 29.02703221 137.5973114 29.12035656 148.53118801 C29.1929472 157.06539282 29.22977528 165.59908978 29.23351002 174.13360691 C29.23648553 179.07276685 29.2558709 184.01049483 29.31668091 188.9493103 C29.37173673 193.54848738 29.37427828 198.14470515 29.33584023 202.74402237 C29.33078275 204.40978329 29.34434047 206.07572777 29.37849998 207.74114609 C29.61835366 220.17099573 29.61835366 220.17099573 25.59342957 224.71981812 C22.81110966 226.77536907 20.07364176 228.42320702 17 230 C15.74840581 230.78937697 14.50241153 231.58795284 13.26953125 232.40625 C11.45222012 233.52013639 9.62382956 234.61064849 7.78515625 235.68896484 C3.54552629 238.23293345 -0.20864737 240.96427053 -3.95703125 244.1953125 C-24.87863414 260.91490212 -31.65662758 256 -63 256 C-63 210.13 -63 164.26 -63 117 C-80.25771425 127.95402915 -80.25771425 127.95402915 -97.296875 139.20703125 C-100 141 -100 141 -102 142 C-104.8730726 111.43983884 -104.8730726 111.43983884 -100.24951172 104.29492188 C-96.02495651 100.49644244 -91.170309 98.32395082 -85.76586914 96.68139648 C-83.79338811 96.14799453 -83.79338811 96.14799453 -83 94 C-83.64839844 93.77570313 -84.29679688 93.55140625 -84.96484375 93.3203125 C-89.06837241 91.53525113 -92.76283906 89.22798643 -96.5625 86.875 C-97.35446777 86.38797607 -98.14643555 85.90095215 -98.96240234 85.39916992 C-105.4098162 81.41348402 -111.74410977 77.28099155 -118 73 C-114.76444902 69.43280504 -111.08907245 67.02745061 -107 64.5625 C-105.55365545 63.67485654 -104.10839197 62.7854498 -102.6640625 61.89453125 C-101.52179199 61.18997803 -101.52179199 61.18997803 -100.35644531 60.47119141 C-96.3255049 57.95456822 -92.35201704 55.35068956 -88.375 52.75 C-81.28041938 48.1178255 -74.15486002 43.53850243 -67 39 C-57.45874085 32.94464825 -47.97220657 26.80914795 -38.50732422 20.63525391 C-35.90280694 18.93661158 -33.29732578 17.23945903 -30.69140625 15.54296875 C-29.81766357 14.97408936 -28.9439209 14.40520996 -28.04370117 13.8190918 C-26.33028318 12.70532997 -24.61563584 11.59345669 -22.8996582 10.48364258 C-19.40095947 8.22064403 -15.91047663 5.95418834 -12.4765625 3.59375 C-11.51492188 2.9440625 -10.55328125 2.294375 -9.5625 1.625 C-8.78003906 1.08101563 -7.99757813 0.53703125 -7.19140625 -0.0234375 C-4.32090859 -1.3026254 -3.00672111 -0.81485134 0 0 Z " fill="#E9F3FE" transform="translate(651,400)"/>
<path d="M0 0 C0.45640869 0.36134033 0.91281738 0.72268066 1.38305664 1.0949707 C6.81129476 5.29010092 12.49702307 8.77018502 18.4375 12.1875 C25.26908068 16.16737624 32.02011305 20.21609409 38.625 24.5625 C45.33143311 28.97001689 52.15773257 33.13206812 59.0559082 37.23193359 C66.90310265 41.90918861 74.6438005 46.74932682 82.37524414 51.61499023 C88.81107915 55.65822378 95.28235279 59.62637551 101.88793945 63.38745117 C103.29102274 64.20508113 104.65180429 65.09472115 106 66 C106 66.66 106 67.32 106 68 C104.04199219 69.43432617 104.04199219 69.43432617 101.296875 71.10546875 C100.28947266 71.72856934 99.28207031 72.35166992 98.24414062 72.99365234 C97.17357422 73.65574707 96.10300781 74.3178418 95 75 C92.91757361 76.34361715 90.83948294 77.69397619 88.765625 79.05078125 C87.17451904 80.09057129 87.17451904 80.09057129 85.55126953 81.15136719 C84.46185059 81.86454102 83.37243164 82.57771484 82.25 83.3125 C81.67940857 83.68572388 81.10881714 84.05894775 80.52093506 84.44348145 C73.45743806 89.06401822 66.41004193 93.70695096 59.39916992 98.40698242 C54.4846642 101.69458873 49.52565245 104.91144109 44.5625 108.125 C36.79847494 113.1563423 29.07510282 118.24636341 21.375 123.375 C20.39217041 124.02871582 19.40934082 124.68243164 18.39672852 125.35595703 C17.44854248 125.98872559 16.50035645 126.62149414 15.5234375 127.2734375 C14.60272461 127.88541992 13.68201172 128.49740234 12.73339844 129.12792969 C10.8750178 130.40071128 9.04520432 131.71601221 7.24316406 133.06738281 C6.37143555 133.71803711 5.49970703 134.36869141 4.6015625 135.0390625 C3.83408691 135.63154785 3.06661133 136.2240332 2.27587891 136.83447266 C0 138 0 138 -2.5090332 137.84741211 C-5.11613576 136.96049131 -7.1446879 135.89499537 -9.45703125 134.40234375 C-10.30974609 133.85642578 -11.16246094 133.31050781 -12.04101562 132.74804688 C-12.95560547 132.15056641 -13.87019531 131.55308594 -14.8125 130.9375 C-15.77736328 130.31552734 -16.74222656 129.69355469 -17.73632812 129.05273438 C-25.88672748 123.77832913 -33.95601816 118.38223333 -42.01904297 112.97558594 C-50.53902061 107.27353194 -59.16623206 101.75431912 -67.83203125 96.27734375 C-73.4970787 92.69545548 -79.11902394 89.04831225 -84.72436523 85.3737793 C-87.74516783 83.40464945 -90.72077023 81.5087536 -94 80 C-96 79 -96 79 -98 77.375 C-102.19628211 74.05294333 -106.59864942 71.042487 -111 68 C-110.41782715 67.88100342 -109.8356543 67.76200684 -109.23583984 67.6394043 C-106.89343726 66.96952524 -105.27049841 66.08400868 -103.2265625 64.76953125 C-102.4958252 64.30361572 -101.76508789 63.8377002 -101.01220703 63.35766602 C-100.22442871 62.84776123 -99.43665039 62.33785645 -98.625 61.8125 C-97.79210449 61.28003662 -96.95920898 60.74757324 -96.10107422 60.19897461 C-94.31595493 59.05740556 -92.53230844 57.91353075 -90.75 56.76757812 C-86.21624228 53.85347959 -81.67077561 50.95780316 -77.125 48.0625 C-76.20912109 47.47863525 -75.29324219 46.89477051 -74.34960938 46.29321289 C-66.23704695 41.13047936 -58.06680577 36.0640921 -49.8828125 31.015625 C-45.5781628 28.36017015 -41.28598932 25.68544189 -37 23 C-29.80138325 18.49131421 -22.58046824 14.01900068 -15.35546875 9.55273438 C-10.2280665 6.38256632 -5.10931947 3.19923823 0 0 Z " fill="#E9F3FE" transform="translate(512,317)"/>
<path d="M0 0 C10.51084256 8.84045378 17.59768756 20.4509437 18.890625 34.23046875 C19.84971804 56.01909522 8.08892819 72.17172014 -5.92333984 87.60009766 C-11.39891253 93.52273005 -17.13721808 99.04424773 -23.265625 104.28125 C-26.41269822 107.10495423 -29.35325958 110.12903572 -32.32128906 113.13769531 C-35.58023682 116.42381984 -38.95510048 119.49349922 -42.4765625 122.4921875 C-45.36776302 125.05363806 -48.04334931 127.81707907 -50.73046875 130.58984375 C-52.39453125 132.19140625 -52.39453125 132.19140625 -54.39453125 133.19140625 C-28.98453125 133.52140625 -3.57453125 133.85140625 22.60546875 134.19140625 C22.60546875 143.76140625 22.60546875 153.33140625 22.60546875 163.19140625 C-19.63453125 163.19140625 -61.87453125 163.19140625 -105.39453125 163.19140625 C-105.39453125 140.19140625 -105.39453125 140.19140625 -100.89453125 134.19140625 C-99.10297377 132.80244596 -97.27070358 131.463753 -95.39453125 130.19140625 C-94.04510731 129.04338887 -92.71034566 127.87779629 -91.39453125 126.69140625 C-90.75515625 126.14484375 -90.11578125 125.59828125 -89.45703125 125.03515625 C-87.00528436 122.84344312 -84.70567552 120.53073521 -82.39453125 118.19140625 C-79.55963126 115.32214384 -76.72332466 112.54653914 -73.64453125 109.94140625 C-69.68475846 106.56111241 -66.05384775 102.8891862 -62.39453125 99.19140625 C-55.10267732 91.82314782 -55.10267732 91.82314782 -51.33203125 88.62890625 C-36.86020773 76.26432898 -20.64410563 60.80235995 -18.12109375 41.05078125 C-17.81631105 34.72067904 -19.38420004 30.12791095 -23.39453125 25.19140625 C-31.05207375 18.58625657 -37.91108697 17.81428903 -47.8125 17.91796875 C-54.616558 18.43736249 -60.11559741 20.40208696 -64.83203125 25.44140625 C-68.99705875 30.93594818 -70.27200297 36.45623656 -71.39453125 43.19140625 C-83.27453125 43.19140625 -95.15453125 43.19140625 -107.39453125 43.19140625 C-107.39453125 27.49652538 -102.96437669 16.06509971 -92.33203125 4.50390625 C-68.63326746 -18.09919551 -25.75181979 -19.72247975 0 0 Z " fill="#3094FE" transform="translate(509.39453125,492.80859375)"/>
<path d="M0 0 C0 57.75 0 115.5 0 175 C-12.54 175 -25.08 175 -38 175 C-38 129.13 -38 83.26 -38 36 C-55.25771425 46.95402915 -55.25771425 46.95402915 -72.296875 58.20703125 C-75 60 -75 60 -77 61 C-79.8335877 30.85983 -79.8335877 30.85983 -75.50732422 23.43994141 C-71.52513145 19.64636281 -66.66606978 17.84155429 -61.54980469 16.01904297 C-57.22569405 14.29088922 -53.52374215 11.6688569 -49.6875 9.0625 C-48.31683063 8.17772762 -46.94576161 7.29357396 -45.57421875 6.41015625 C-35.67065999 0 -35.67065999 0 0 0 Z " fill="#3194FE" transform="translate(626,481)"/>
<path d="M0 0 C0.33 0 0.66 0 1 0 C1 3.3 1 6.6 1 10 C11.89 10 22.78 10 34 10 C34 8.02 34 6.04 34 4 C34.66 3.34 35.32 2.68 36 2 C35.67 5.3 35.34 8.6 35 12 C23.12 12 11.24 12 -1 12 C-1 2 -1 2 0 0 Z " fill="#1B84FE" transform="translate(403,524)"/>
<path d="M0 0 C0.33 0 0.66 0 1 0 C1 3.3 1 6.6 1 10 C12.88 10 24.76 10 37 10 C37 9.34 37 8.68 37 8 C37.66 8 38.32 8 39 8 C38.67 9.32 38.34 10.64 38 12 C32.927993 12.04942365 27.85612606 12.08573068 22.78393555 12.10986328 C21.05832477 12.11992326 19.33273105 12.13357276 17.60717773 12.15087891 C15.1273986 12.17512754 12.64784477 12.18648301 10.16796875 12.1953125 C9.39599655 12.20563507 8.62402435 12.21595764 7.82865906 12.22659302 C4.00718524 12.22739422 2.25863893 12.17242595 -1 10 C-0.67 6.7 -0.34 3.4 0 0 Z " fill="#F7FAFE" transform="translate(401,526)"/>
<path d="M0 0 C0.66 0 1.32 0 2 0 C2 9.9 2 19.8 2 30 C3.32 29.67 4.64 29.34 6 29 C4.3545622 30.68762851 2.68711423 32.3540349 1 34 C0.67 34 0.34 34 0 34 C0 22.78 0 11.56 0 0 Z " fill="#1079FE" transform="translate(549,508)"/>
<path d="M0 0 C0.66 0.33 1.32 0.66 2 1 C-0.61691164 3.67470955 -3.24481708 6.33834481 -5.875 9 C-6.62136719 9.763125 -7.36773437 10.52625 -8.13671875 11.3125 C-8.85214844 12.034375 -9.56757813 12.75625 -10.3046875 13.5 C-11.2944458 14.50546875 -11.2944458 14.50546875 -12.30419922 15.53125 C-14 17 -14 17 -16 17 C-14.5969473 13.72143808 -12.98851532 11.8858673 -10.25 9.625 C-6.6385246 6.5736987 -3.30090396 3.38342656 0 0 Z " fill="#F4F8FC" transform="translate(485,597)"/>
<path d="M0 0 C0.66 0.99 1.32 1.98 2 3 C1.21625 3.268125 0.4325 3.53625 -0.375 3.8125 C-3.28114923 4.84814432 -3.28114923 4.84814432 -5 8 C-5.66 7.67 -6.32 7.34 -7 7 C-7 6.01 -7 5.02 -7 4 C-4.69 2.68 -2.38 1.36 0 0 Z " fill="#E0ECFD" transform="translate(512,317)"/>
<path d="M0 0 C0.66 0.33 1.32 0.66 2 1 C0.71283353 2.00578589 -0.57988658 3.00446798 -1.875 4 C-2.95394531 4.8353125 -2.95394531 4.8353125 -4.0546875 5.6875 C-6 7 -6 7 -8 7 C-6.77423504 3.32270513 -5.19078114 2.68560126 -1.9375 0.8125 C-1.298125 0.544375 -0.65875 0.27625 0 0 Z " fill="#F4F8FD" transform="translate(578,487)"/>
<path d="M0 0 C0.66 0 1.32 0 2 0 C0.60667426 3.36720387 -0.9789286 4.9859524 -4 7 C-4 6.01 -4 5.02 -4 4 C-2.68 3.34 -1.36 2.68 0 2 C0 1.34 0 0.68 0 0 Z " fill="#D7EAFD" transform="translate(419,616)"/>
<path d="M0 0 C0.33 0 0.66 0 1 0 C1 2.64 1 5.28 1 8 C0.67 8 0.34 8 0 8 C0 5.36 0 2.72 0 0 Z " fill="#D3E5FE" transform="translate(340,472)"/>
<path d="M0 0 C0.33 0 0.66 0 1 0 C1 2.31 1 4.62 1 7 C0.67 7 0.34 7 0 7 C0 4.69 0 2.38 0 0 Z " fill="#469BFA" transform="translate(767,476)"/>
<path d="M0 0 C0.33 0 0.66 0 1 0 C1 2.31 1 4.62 1 7 C0.67 7 0.34 7 0 7 C0 4.69 0 2.38 0 0 Z " fill="#4698F6" transform="translate(767,464)"/>
<path d="M0 0 C0.33 0 0.66 0 1 0 C1 1.98 1 3.96 1 6 C0.67 6 0.34 6 0 6 C0 4.02 0 2.04 0 0 Z " fill="#4599F7" transform="translate(767,616)"/>
<path d="M0 0 C0.33 0 0.66 0 1 0 C1 1.98 1 3.96 1 6 C0.67 6 0.34 6 0 6 C0 4.02 0 2.04 0 0 Z " fill="#469AF8" transform="translate(767,600)"/>
<path d="M0 0 C0.33 0 0.66 0 1 0 C1 1.98 1 3.96 1 6 C0.67 6 0.34 6 0 6 C0 4.02 0 2.04 0 0 Z " fill="#459AF8" transform="translate(767,568)"/>
<path d="M0 0 C0.33 0 0.66 0 1 0 C1 1.98 1 3.96 1 6 C0.67 6 0.34 6 0 6 C0 4.02 0 2.04 0 0 Z " fill="#469CFA" transform="translate(767,489)"/>
<path d="M0 0 C0.33 0 0.66 0 1 0 C1 1.65 1 3.3 1 5 C0.67 5 0.34 5 0 5 C0 3.35 0 1.7 0 0 Z " fill="#CBE1FD" transform="translate(340,608)"/>
<path d="M0 0 C0.33 0 0.66 0 1 0 C1 1.65 1 3.3 1 5 C0.67 5 0.34 5 0 5 C0 3.35 0 1.7 0 0 Z " fill="#66B0FE" transform="translate(715,589)"/>
<path d="M0 0 C0.33 0 0.66 0 1 0 C1 1.65 1 3.3 1 5 C0.67 5 0.34 5 0 5 C0 3.35 0 1.7 0 0 Z " fill="#D1E4FD" transform="translate(340,553)"/>
<path d="M0 0 C0.33 0 0.66 0 1 0 C1 1.65 1 3.3 1 5 C0.67 5 0.34 5 0 5 C0 3.35 0 1.7 0 0 Z " fill="#4499F8" transform="translate(767,545)"/>
<path d="M0 0 C0.33 0 0.66 0 1 0 C1 1.65 1 3.3 1 5 C0.67 5 0.34 5 0 5 C0 3.35 0 1.7 0 0 Z " fill="#479BF9" transform="translate(767,522)"/>
<path d="M0 0 C1.485 0.99 1.485 0.99 3 2 C2.01 2 1.02 2 0 2 C0 1.34 0 0.68 0 0 Z " fill="#CFE2FD" transform="translate(472,700)"/>
<path d="M0 0 C0.99 0 1.98 0 3 0 C2.67 0.66 2.34 1.32 2 2 C1.34 1.34 0.68 0.68 0 0 Z " fill="#BBD7FE" transform="translate(403,660)"/>
<path d="M0 0 C1 4 1 4 1 4 Z " fill="#4598F5" transform="translate(767,640)"/>
<path d="M0 0 C1 4 1 4 1 4 Z " fill="#449AF7" transform="translate(767,632)"/>
<path d="M0 0 C1 4 1 4 1 4 Z " fill="#469AF8" transform="translate(767,592)"/>
<path d="M0 0 C1 4 1 4 1 4 Z " fill="#CFE3FD" transform="translate(340,577)"/>
<path d="M0 0 C1 4 1 4 1 4 Z " fill="#69B0FE" transform="translate(715,507)"/>
<path d="M0 0 C1 4 1 4 1 4 Z " fill="#D1E5FD" transform="translate(340,492)"/>
<path d="M0 0 C1 4 1 4 1 4 Z " fill="#D0E3FE" transform="translate(340,452)"/>
<path d="M0 0 C1 4 1 4 1 4 Z " fill="#D0E3FE" transform="translate(340,444)"/>
<path d="M0 0 C1 4 1 4 1 4 Z " fill="#CFE2FD" transform="translate(340,436)"/>
<path d="M0 0 C1 4 1 4 1 4 Z " fill="#4699F6" transform="translate(767,416)"/>
<path d="M0 0 C0.99 0.33 1.98 0.66 3 1 C2.01 1 1.02 1 0 1 C0 0.67 0 0.34 0 0 Z " fill="#D8E8FE" transform="translate(380,402)"/>
<path d="M0 0 C3 1 3 1 3 1 Z " fill="#6AB1FB" transform="translate(420,704)"/>
<path d="M0 0 C0.66 0 1.32 0 2 0 C1.67 0.66 1.34 1.32 1 2 C0.67 1.34 0.34 0.68 0 0 Z " fill="#4797F5" transform="translate(707,702)"/>
<path d="M0 0 C0.99 0.495 0.99 0.495 2 1 C1.01 1.495 1.01 1.495 0 2 C0 1.34 0 0.68 0 0 Z " fill="#CEE2FD" transform="translate(433,677)"/>
<path d="M0 0 C3 1 3 1 3 1 Z " fill="#6CB0FE" transform="translate(648,675)"/>
<path d="M0 0 C3 1 3 1 3 1 Z " fill="#CAE0FD" transform="translate(417,668)"/>
<path d="" fill="#C7DFFD" transform="translate(0,0)"/>
<path d="M0 0 C0.66 0 1.32 0 2 0 C1.67 0.66 1.34 1.32 1 2 C0.67 1.34 0.34 0.68 0 0 Z " fill="#64ACFE" transform="translate(714,613)"/>
<path d="" fill="#CBE1FD" transform="translate(0,0)"/>
<path d="" fill="#CFE4FD" transform="translate(0,0)"/>
<path d="" fill="#459CF7" transform="translate(0,0)"/>
<path d="" fill="#D0E4FE" transform="translate(0,0)"/>
<path d="" fill="#D2E4FD" transform="translate(0,0)"/>
<path d="" fill="#D0E5FE" transform="translate(0,0)"/>
<path d="" fill="#D1E5FE" transform="translate(0,0)"/>
<path d="" fill="#489BF8" transform="translate(0,0)"/>
<path d="" fill="#4599FB" transform="translate(0,0)"/>
<path d="" fill="#D2E5FE" transform="translate(0,0)"/>
<path d="" fill="#D1E5FD" transform="translate(0,0)"/>
<path d="" fill="#D2E4FD" transform="translate(0,0)"/>
<path d="" fill="#DEEAFE" transform="translate(0,0)"/>
<path d="" fill="#6AB0FF" transform="translate(0,0)"/>
<path d="" fill="#479BF7" transform="translate(0,0)"/>
<path d="" fill="#459AF8" transform="translate(0,0)"/>
<path d="" fill="#479BF6" transform="translate(0,0)"/>
<path d="M0 0 C0.99 0.495 0.99 0.495 2 1 C1.01 1.495 1.01 1.495 0 2 C0 1.34 0 0.68 0 0 Z " fill="#E5F0FF" transform="translate(474,435)"/>
<path d="" fill="#479BF6" transform="translate(0,0)"/>
<path d="" fill="#4A9EF8" transform="translate(0,0)"/>
<path d="" fill="#479AF4" transform="translate(0,0)"/>
<path d="M0 0 C0.33 0.66 0.66 1.32 1 2 C0.34 1.67 -0.32 1.34 -1 1 C-0.67 0.67 -0.34 0.34 0 0 Z " fill="#D6E6FE" transform="translate(403,388)"/>
<path d="" fill="#72B2FF" transform="translate(0,0)"/>
<path d="M0 0 C3 1 3 1 3 1 Z " fill="#D6E6FC" transform="translate(464,344)"/>
<path d="" fill="#78B5FF" transform="translate(0,0)"/>
<path d="M0 0 C2 1 2 1 2 1 Z " fill="#69AEFA" transform="translate(499,750)"/>
<path d="M0 0 C2 1 2 1 2 1 Z " fill="#74B3F9" transform="translate(527,746)"/>
<path d="M0 0 C2 1 2 1 2 1 Z " fill="#4B9AF5" transform="translate(377,739)"/>
<path d="" fill="#4A9AF8" transform="translate(0,0)"/>
<path d="M0 0 C2 1 2 1 2 1 Z " fill="#78B7FF" transform="translate(470,729)"/>
<path d="M0 0 C2 1 2 1 2 1 Z " fill="#C8DFFF" transform="translate(514,725)"/>
<path d="" fill="#C9E1FE" transform="translate(0,0)"/>
<path d="M0 0 C2 1 2 1 2 1 Z " fill="#C7DFFC" transform="translate(522,724)"/>
<path d="" fill="#D1E6FD" transform="translate(0,0)"/>
<path d="M0 0 C2 1 2 1 2 1 Z " fill="#4799F8" transform="translate(691,710)"/>
<path d="M0 0 C2 1 2 1 2 1 Z " fill="#CBDFFE" transform="translate(592,679)"/>
<path d="M0 0 C2 1 2 1 2 1 Z " fill="#CBE2FD" transform="translate(594,678)"/>
<path d="M0 0 C2 1 2 1 2 1 Z " fill="#6DB0FA" transform="translate(655,672)"/>
<path d="M0 0 C2 1 2 1 2 1 Z " fill="#C9E0FC" transform="translate(422,671)"/>
<path d="M0 0 C2 1 2 1 2 1 Z " fill="#C7DFFC" transform="translate(611,667)"/>
<path d="M0 0 C2 1 2 1 2 1 Z " fill="#6EB2FD" transform="translate(669,664)"/>
<path d="M0 0 C2 1 2 1 2 1 Z " fill="#C2DDFD" transform="translate(618,662)"/>
<path d="" fill="#4598F6" transform="translate(0,0)"/>
<path d="M0 0 C2 1 2 1 2 1 Z " fill="#6BAFFC" transform="translate(332,652)"/>
<path d="" fill="#4699F4" transform="translate(0,0)"/>
<path d="" fill="#6DB2FF" transform="translate(0,0)"/>
<path d="M0 0 C2 1 2 1 2 1 Z " fill="#CEE3FB" transform="translate(641,647)"/>
<path d="M0 0 C2 1 2 1 2 1 Z " fill="#61ADFB" transform="translate(705,643)"/>
<path d="M0 0 C2 1 2 1 2 1 Z " fill="#CEE2FD" transform="translate(660,635)"/>
<path d="" fill="#60A8FF" transform="translate(0,0)"/>
<path d="" fill="#61ABFD" transform="translate(0,0)"/>
<path d="" fill="#469BF8" transform="translate(0,0)"/>
<path d="" fill="#68AEFE" transform="translate(0,0)"/>
<path d="" fill="#CDE3FD" transform="translate(0,0)"/>
<path d="" fill="#4A9FF7" transform="translate(0,0)"/>
<path d="" fill="#D0E2FD" transform="translate(0,0)"/>
<path d="" fill="#4B9DF8" transform="translate(0,0)"/>
<path d="" fill="#68AEFF" transform="translate(0,0)"/>
<path d="" fill="#D2E3FD" transform="translate(0,0)"/>
<path d="" fill="#479AFB" transform="translate(0,0)"/>
<path d="" fill="#D1E5FE" transform="translate(0,0)"/>
<path d="" fill="#D0E5FF" transform="translate(0,0)"/>
<path d="" fill="#469AF9" transform="translate(0,0)"/>
<path d="" fill="#489BF9" transform="translate(0,0)"/>
<path d="" fill="#6BB0FE" transform="translate(0,0)"/>
<path d="" fill="#D1E4FD" transform="translate(0,0)"/>
<path d="" fill="#449BF9" transform="translate(0,0)"/>
<path d="M0 0 C2 1 2 1 2 1 Z " fill="#CDE3FE" transform="translate(541,497)"/>
<path d="" fill="#69B0FE" transform="translate(0,0)"/>
<path d="" fill="#D3E4FD" transform="translate(0,0)"/>
<path d="" fill="#6AB2FF" transform="translate(0,0)"/>
<path d="" fill="#D2E5FE" transform="translate(0,0)"/>
<path d="" fill="#D3E4FE" transform="translate(0,0)"/>
<path d="M0 0 C2 1 2 1 2 1 Z " fill="#E4F1FE" transform="translate(466,456)"/>
<path d="" fill="#69B0FF" transform="translate(0,0)"/>
<path d="" fill="#D2E5FE" transform="translate(0,0)"/>
<path d="" fill="#E6F0FF" transform="translate(0,0)"/>
<path d="" fill="#6AB2FF" transform="translate(0,0)"/>
<path d="" fill="#6BB2FE" transform="translate(0,0)"/>
<path d="" fill="#D0E4FE" transform="translate(0,0)"/>
<path d="" fill="#66B0FE" transform="translate(0,0)"/>
<path d="" fill="#E3F0FF" transform="translate(0,0)"/>
<path d="M0 0 C2 1 2 1 2 1 Z " fill="#E2EEFF" transform="translate(403,416)"/>
<path d="M0 0 C2 1 2 1 2 1 Z " fill="#E2EEFD" transform="translate(625,410)"/>
<path d="M0 0 C2 1 2 1 2 1 Z " fill="#E3EEFE" transform="translate(584,407)"/>
<path d="" fill="#62ABFE" transform="translate(0,0)"/>
<path d="" fill="#6EB2FF" transform="translate(0,0)"/>
<path d="" fill="#4697F0" transform="translate(0,0)"/>
<path d="" fill="#4797EF" transform="translate(0,0)"/>
<path d="" fill="#4C96F0" transform="translate(0,0)"/>
<path d="M0 0 C2 1 2 1 2 1 Z " fill="#4998F0" transform="translate(278,360)"/>
<path d="M0 0 C2 1 2 1 2 1 Z " fill="#D5E7FD" transform="translate(575,355)"/>
<path d="" fill="#D5E7FF" transform="translate(0,0)"/>
<path d="M0 0 C2 1 2 1 2 1 Z " fill="#4B9BF5" transform="translate(723,349)"/>
<path d="M0 0 C2 1 2 1 2 1 Z " fill="#70B1FF" transform="translate(616,345)"/>
<path d="" fill="#C8DFFF" transform="translate(0,0)"/>
<path d="" fill="#D3E6FF" transform="translate(0,0)"/>
<path d="M0 0 C2 1 2 1 2 1 Z " fill="#C1D9FE" transform="translate(508,317)"/>
<path d="" fill="#4998F2" transform="translate(0,0)"/>
<path d="" fill="#38393E" transform="translate(0,0)"/>
<path d="" fill="#353B3F" transform="translate(0,0)"/>
<path d="" fill="#414041" transform="translate(0,0)"/>
<path d="" fill="#3C3B3B" transform="translate(0,0)"/>
<path d="" fill="#4795EE" transform="translate(0,0)"/>
<path d="" fill="#4694EE" transform="translate(0,0)"/>
<path d="" fill="#4A96F1" transform="translate(0,0)"/>
<path d="" fill="#4398F5" transform="translate(0,0)"/>
<path d="" fill="#4999F4" transform="translate(0,0)"/>
<path d="" fill="#4797F1" transform="translate(0,0)"/>
<path d="" fill="#4198F6" transform="translate(0,0)"/>
<path d="" fill="#4A97F3" transform="translate(0,0)"/>
<path d="" fill="#4898F3" transform="translate(0,0)"/>
<path d="" fill="#4697F4" transform="translate(0,0)"/>
<path d="" fill="#4699F7" transform="translate(0,0)"/>
<path d="" fill="#4799F6" transform="translate(0,0)"/>
<path d="" fill="#479BF7" transform="translate(0,0)"/>
<path d="" fill="#4699F4" transform="translate(0,0)"/>
<path d="" fill="#4499F4" transform="translate(0,0)"/>
<path d="" fill="#479BF9" transform="translate(0,0)"/>
<path d="" fill="#4B99F3" transform="translate(0,0)"/>
<path d="" fill="#4798F5" transform="translate(0,0)"/>
<path d="" fill="#4997F4" transform="translate(0,0)"/>
<path d="" fill="#4699FA" transform="translate(0,0)"/>
<path d="" fill="#4B99F4" transform="translate(0,0)"/>
<path d="" fill="#4B9BF7" transform="translate(0,0)"/>
<path d="" fill="#4B98F6" transform="translate(0,0)"/>
<path d="" fill="#4797F7" transform="translate(0,0)"/>
<path d="" fill="#4797F6" transform="translate(0,0)"/>
<path d="" fill="#489AF8" transform="translate(0,0)"/>
<path d="" fill="#6DAEF9" transform="translate(0,0)"/>
<path d="" fill="#6CAEFC" transform="translate(0,0)"/>
<path d="" fill="#6CAFF9" transform="translate(0,0)"/>
<path d="" fill="#4B96EF" transform="translate(0,0)"/>
<path d="" fill="#499AF7" transform="translate(0,0)"/>
<path d="" fill="#4999F5" transform="translate(0,0)"/>
<path d="" fill="#4B9AF9" transform="translate(0,0)"/>
<path d="" fill="#6FB1FB" transform="translate(0,0)"/>
<path d="" fill="#4A9BF7" transform="translate(0,0)"/>
<path d="" fill="#67ACFF" transform="translate(0,0)"/>
<path d="" fill="#489AF7" transform="translate(0,0)"/>
<path d="" fill="#78B7FC" transform="translate(0,0)"/>
<path d="" fill="#72B5FA" transform="translate(0,0)"/>
<path d="" fill="#75B8FE" transform="translate(0,0)"/>
<path d="" fill="#4A9AFA" transform="translate(0,0)"/>
<path d="" fill="#4699F5" transform="translate(0,0)"/>
<path d="" fill="#4C9DF7" transform="translate(0,0)"/>
<path d="" fill="#70B6FA" transform="translate(0,0)"/>
<path d="" fill="#78B7FC" transform="translate(0,0)"/>
<path d="" fill="#72B5F8" transform="translate(0,0)"/>
<path d="" fill="#77B6F9" transform="translate(0,0)"/>
<path d="" fill="#7DB7FA" transform="translate(0,0)"/>
<path d="" fill="#4698F9" transform="translate(0,0)"/>
<path d="" fill="#469AF7" transform="translate(0,0)"/>
<path d="" fill="#499BF8" transform="translate(0,0)"/>
<path d="" fill="#6DB2FE" transform="translate(0,0)"/>
<path d="" fill="#72B3FF" transform="translate(0,0)"/>
<path d="" fill="#76B5FD" transform="translate(0,0)"/>
<path d="" fill="#C6DEFE" transform="translate(0,0)"/>
<path d="" fill="#C6DAFC" transform="translate(0,0)"/>
<path d="" fill="#BBD9FF" transform="translate(0,0)"/>
<path d="" fill="#CBE1FD" transform="translate(0,0)"/>
<path d="" fill="#499BF6" transform="translate(0,0)"/>
<path d="" fill="#70B3FF" transform="translate(0,0)"/>
<path d="" fill="#CCE3FE" transform="translate(0,0)"/>
<path d="" fill="#6DACFC" transform="translate(0,0)"/>
<path d="" fill="#74B3FA" transform="translate(0,0)"/>
<path d="" fill="#CCE0FD" transform="translate(0,0)"/>
<path d="" fill="#74B7FE" transform="translate(0,0)"/>
<path d="" fill="#479AFA" transform="translate(0,0)"/>
<path d="" fill="#C9E3FF" transform="translate(0,0)"/>
<path d="" fill="#CAE1FF" transform="translate(0,0)"/>
<path d="" fill="#4D9BF5" transform="translate(0,0)"/>
<path d="" fill="#81BBFE" transform="translate(0,0)"/>
<path d="" fill="#C3DDFE" transform="translate(0,0)"/>
<path d="" fill="#CCE3FF" transform="translate(0,0)"/>
<path d="" fill="#78B4FA" transform="translate(0,0)"/>
<path d="" fill="#CFE1FD" transform="translate(0,0)"/>
<path d="" fill="#70B3FE" transform="translate(0,0)"/>
<path d="" fill="#77B6FE" transform="translate(0,0)"/>
<path d="" fill="#87BDFD" transform="translate(0,0)"/>
<path d="" fill="#CEE1FD" transform="translate(0,0)"/>
<path d="" fill="#D6E6F9" transform="translate(0,0)"/>
<path d="" fill="#469AF5" transform="translate(0,0)"/>
<path d="" fill="#D2E5FF" transform="translate(0,0)"/>
<path d="" fill="#CBE1FE" transform="translate(0,0)"/>
<path d="" fill="#4899F4" transform="translate(0,0)"/>
<path d="" fill="#479CF6" transform="translate(0,0)"/>
<path d="" fill="#CEE1FC" transform="translate(0,0)"/>
<path d="" fill="#CFE2FE" transform="translate(0,0)"/>
<path d="" fill="#78B6FF" transform="translate(0,0)"/>
<path d="" fill="#D0E3FF" transform="translate(0,0)"/>
<path d="" fill="#74B6FE" transform="translate(0,0)"/>
<path d="" fill="#7BB8FF" transform="translate(0,0)"/>
<path d="" fill="#72B3FC" transform="translate(0,0)"/>
<path d="" fill="#6DB2FC" transform="translate(0,0)"/>
<path d="" fill="#6FB5FD" transform="translate(0,0)"/>
<path d="" fill="#489CF6" transform="translate(0,0)"/>
<path d="" fill="#4A98F7" transform="translate(0,0)"/>
<path d="" fill="#D4E6FD" transform="translate(0,0)"/>
<path d="" fill="#C9DFFF" transform="translate(0,0)"/>
<path d="" fill="#4999F9" transform="translate(0,0)"/>
<path d="" fill="#D0E5FD" transform="translate(0,0)"/>
<path d="" fill="#6EB2FC" transform="translate(0,0)"/>
<path d="" fill="#479AF9" transform="translate(0,0)"/>
<path d="" fill="#72B3FD" transform="translate(0,0)"/>
<path d="" fill="#78B5FF" transform="translate(0,0)"/>
<path d="" fill="#6CB2FD" transform="translate(0,0)"/>
<path d="" fill="#6AB1F9" transform="translate(0,0)"/>
<path d="" fill="#CAE1FE" transform="translate(0,0)"/>
<path d="" fill="#D2E5FF" transform="translate(0,0)"/>
<path d="" fill="#D2E4F8" transform="translate(0,0)"/>
<path d="" fill="#D5E6FF" transform="translate(0,0)"/>
<path d="" fill="#6EB1FF" transform="translate(0,0)"/>
<path d="" fill="#70B2FA" transform="translate(0,0)"/>
<path d="" fill="#4999F2" transform="translate(0,0)"/>
<path d="" fill="#D0E5FE" transform="translate(0,0)"/>
<path d="" fill="#4B9CF5" transform="translate(0,0)"/>
<path d="" fill="#76B8FD" transform="translate(0,0)"/>
<path d="" fill="#7DBAFF" transform="translate(0,0)"/>
<path d="" fill="#4B98F6" transform="translate(0,0)"/>
<path d="" fill="#64AEFA" transform="translate(0,0)"/>
<path d="" fill="#D8E7FC" transform="translate(0,0)"/>
<path d="" fill="#4698F4" transform="translate(0,0)"/>
<path d="" fill="#6CAFFF" transform="translate(0,0)"/>
<path d="" fill="#D4E5FD" transform="translate(0,0)"/>
<path d="" fill="#CBE0FE" transform="translate(0,0)"/>
<path d="" fill="#CEE1FE" transform="translate(0,0)"/>
<path d="" fill="#73B1FB" transform="translate(0,0)"/>
<path d="" fill="#74B5FF" transform="translate(0,0)"/>
<path d="" fill="#76B5FE" transform="translate(0,0)"/>
<path d="" fill="#76B7FE" transform="translate(0,0)"/>
<path d="" fill="#68B0FE" transform="translate(0,0)"/>
<path d="" fill="#CDE2FD" transform="translate(0,0)"/>
<path d="" fill="#4A96F4" transform="translate(0,0)"/>
<path d="" fill="#4799F5" transform="translate(0,0)"/>
<path d="" fill="#D0E6FF" transform="translate(0,0)"/>
<path d="" fill="#CBE0FD" transform="translate(0,0)"/>
<path d="" fill="#4893F0" transform="translate(0,0)"/>
<path d="" fill="#CBE0FE" transform="translate(0,0)"/>
<path d="" fill="#71B4FE" transform="translate(0,0)"/>
<path d="" fill="#C5E1FF" transform="translate(0,0)"/>
<path d="" fill="#4796EC" transform="translate(0,0)"/>
<path d="" fill="#6BB0FB" transform="translate(0,0)"/>
<path d="" fill="#6EB2FE" transform="translate(0,0)"/>
<path d="" fill="#6BB3FC" transform="translate(0,0)"/>
<path d="" fill="#4C97E5" transform="translate(0,0)"/>
<path d="" fill="#66AFFE" transform="translate(0,0)"/>
<path d="" fill="#C4DBFE" transform="translate(0,0)"/>
<path d="" fill="#6FB4FD" transform="translate(0,0)"/>
<path d="" fill="#AFD1FC" transform="translate(0,0)"/>
<path d="" fill="#C3DDFF" transform="translate(0,0)"/>
<path d="" fill="#C1DEFE" transform="translate(0,0)"/>
<path d="" fill="#BAD9FF" transform="translate(0,0)"/>
<path d="" fill="#BBD7FF" transform="translate(0,0)"/>
<path d="" fill="#C7DFFE" transform="translate(0,0)"/>
<path d="" fill="#C5DEFC" transform="translate(0,0)"/>
<path d="" fill="#6AB1FF" transform="translate(0,0)"/>
<path d="" fill="#63ACFC" transform="translate(0,0)"/>
<path d="" fill="#66AEFD" transform="translate(0,0)"/>
<path d="" fill="#BEDAFE" transform="translate(0,0)"/>
<path d="" fill="#C9DDFB" transform="translate(0,0)"/>
<path d="" fill="#C8E0FF" transform="translate(0,0)"/>
<path d="" fill="#C7DFFB" transform="translate(0,0)"/>
<path d="" fill="#6CB2FF" transform="translate(0,0)"/>
<path d="" fill="#68AEFD" transform="translate(0,0)"/>
<path d="" fill="#4597F3" transform="translate(0,0)"/>
<path d="" fill="#CCE2FF" transform="translate(0,0)"/>
<path d="" fill="#C8E0FF" transform="translate(0,0)"/>
<path d="" fill="#D0E3FF" transform="translate(0,0)"/>
<path d="" fill="#D0E3FF" transform="translate(0,0)"/>
<path d="" fill="#60ACFE" transform="translate(0,0)"/>
<path d="" fill="#5DA9FF" transform="translate(0,0)"/>
<path d="" fill="#61B0FD" transform="translate(0,0)"/>
<path d="" fill="#D1E7FA" transform="translate(0,0)"/>
<path d="" fill="#CDE1FD" transform="translate(0,0)"/>
<path d="" fill="#CBDFFD" transform="translate(0,0)"/>
<path d="" fill="#5EA9FF" transform="translate(0,0)"/>
<path d="" fill="#CFE3FC" transform="translate(0,0)"/>
<path d="" fill="#CFE2FF" transform="translate(0,0)"/>
<path d="" fill="#61AAFF" transform="translate(0,0)"/>
<path d="" fill="#CDE1FE" transform="translate(0,0)"/>
<path d="" fill="#CBE0FF" transform="translate(0,0)"/>
<path d="" fill="#D0E3FD" transform="translate(0,0)"/>
<path d="" fill="#499DF6" transform="translate(0,0)"/>
<path d="" fill="#CDE0FE" transform="translate(0,0)"/>
<path d="" fill="#CEE3FC" transform="translate(0,0)"/>
<path d="" fill="#D2E5FF" transform="translate(0,0)"/>
<path d="" fill="#CDE3FF" transform="translate(0,0)"/>
<path d="" fill="#499BF8" transform="translate(0,0)"/>
<path d="" fill="#5CA9FC" transform="translate(0,0)"/>
<path d="" fill="#C9E0FC" transform="translate(0,0)"/>
<path d="" fill="#CBDFFF" transform="translate(0,0)"/>
<path d="" fill="#C2DBFD" transform="translate(0,0)"/>
<path d="" fill="#BCDAFE" transform="translate(0,0)"/>
<path d="" fill="#61ABFF" transform="translate(0,0)"/>
<path d="" fill="#C3DDFD" transform="translate(0,0)"/>
<path d="" fill="#60ABFF" transform="translate(0,0)"/>
<path d="" fill="#C9E2FF" transform="translate(0,0)"/>
<path d="" fill="#6CAEFF" transform="translate(0,0)"/>
<path d="" fill="#489EF9" transform="translate(0,0)"/>
<path d="" fill="#469BFA" transform="translate(0,0)"/>
<path d="" fill="#62AAFD" transform="translate(0,0)"/>
<path d="" fill="#4F9EF7" transform="translate(0,0)"/>
<path d="" fill="#64ADFF" transform="translate(0,0)"/>
<path d="" fill="#CEE1FD" transform="translate(0,0)"/>
<path d="" fill="#64AFFE" transform="translate(0,0)"/>
<path d="" fill="#489DF9" transform="translate(0,0)"/>
<path d="" fill="#489CF9" transform="translate(0,0)"/>
<path d="" fill="#65ACFF" transform="translate(0,0)"/>
<path d="" fill="#69AFFF" transform="translate(0,0)"/>
<path d="" fill="#67AEFF" transform="translate(0,0)"/>
<path d="" fill="#CDE3FD" transform="translate(0,0)"/>
<path d="" fill="#C9DEFD" transform="translate(0,0)"/>
<path d="" fill="#6DB0FD" transform="translate(0,0)"/>
<path d="" fill="#499BF6" transform="translate(0,0)"/>
<path d="" fill="#469BFB" transform="translate(0,0)"/>
<path d="" fill="#69B0FC" transform="translate(0,0)"/>
<path d="" fill="#4399F8" transform="translate(0,0)"/>
<path d="" fill="#4499F8" transform="translate(0,0)"/>
<path d="" fill="#77B2FF" transform="translate(0,0)"/>
<path d="" fill="#71B4FC" transform="translate(0,0)"/>
<path d="" fill="#72B0FE" transform="translate(0,0)"/>
<path d="" fill="#D1E3FD" transform="translate(0,0)"/>
<path d="" fill="#4A9FFA" transform="translate(0,0)"/>
<path d="" fill="#6AAEFF" transform="translate(0,0)"/>
<path d="" fill="#D0E1FD" transform="translate(0,0)"/>
<path d="" fill="#71B4FD" transform="translate(0,0)"/>
<path d="" fill="#4B9DF8" transform="translate(0,0)"/>
<path d="" fill="#68AEFF" transform="translate(0,0)"/>
<path d="" fill="#469DF9" transform="translate(0,0)"/>
<path d="" fill="#6FB2FE" transform="translate(0,0)"/>
<path d="" fill="#4EA1F8" transform="translate(0,0)"/>
<path d="" fill="#D1E4FF" transform="translate(0,0)"/>
<path d="" fill="#6AAFFF" transform="translate(0,0)"/>
<path d="" fill="#68AEFF" transform="translate(0,0)"/>
<path d="" fill="#D2E5FD" transform="translate(0,0)"/>
<path d="" fill="#68AEFD" transform="translate(0,0)"/>
<path d="" fill="#6CB2FD" transform="translate(0,0)"/>
<path d="" fill="#D2E4FF" transform="translate(0,0)"/>
<path d="" fill="#72B4FF" transform="translate(0,0)"/>
<path d="" fill="#459BF8" transform="translate(0,0)"/>
<path d="" fill="#6AB1FE" transform="translate(0,0)"/>
<path d="" fill="#69B0FF" transform="translate(0,0)"/>
<path d="" fill="#6CAFFE" transform="translate(0,0)"/>
<path d="" fill="#489DFA" transform="translate(0,0)"/>
<path d="" fill="#78B7FE" transform="translate(0,0)"/>
<path d="" fill="#75B5FE" transform="translate(0,0)"/>
<path d="" fill="#4B9FF5" transform="translate(0,0)"/>
<path d="" fill="#68AFFF" transform="translate(0,0)"/>
<path d="" fill="#66AEFF" transform="translate(0,0)"/>
<path d="" fill="#68AFFD" transform="translate(0,0)"/>
<path d="" fill="#6BADFF" transform="translate(0,0)"/>
<path d="" fill="#4AA0FB" transform="translate(0,0)"/>
<path d="" fill="#459BF8" transform="translate(0,0)"/>
<path d="" fill="#D1E3FC" transform="translate(0,0)"/>
<path d="" fill="#449BF9" transform="translate(0,0)"/>
<path d="" fill="#D4E6FE" transform="translate(0,0)"/>
<path d="" fill="#67ACFF" transform="translate(0,0)"/>
<path d="" fill="#D3E7FC" transform="translate(0,0)"/>
<path d="" fill="#4C9EFA" transform="translate(0,0)"/>
<path d="" fill="#76B6FF" transform="translate(0,0)"/>
<path d="" fill="#4B9FFA" transform="translate(0,0)"/>
<path d="" fill="#BDD9FA" transform="translate(0,0)"/>
<path d="" fill="#479EF8" transform="translate(0,0)"/>
<path d="" fill="#CCE0FB" transform="translate(0,0)"/>
<path d="" fill="#9DC9FC" transform="translate(0,0)"/>
<path d="" fill="#6AB1FF" transform="translate(0,0)"/>
<path d="" fill="#A0CAFD" transform="translate(0,0)"/>
<path d="" fill="#D0E4FF" transform="translate(0,0)"/>
<path d="" fill="#D0E2FD" transform="translate(0,0)"/>
<path d="" fill="#479BF9" transform="translate(0,0)"/>
<path d="" fill="#D2E5FF" transform="translate(0,0)"/>
<path d="" fill="#459BF9" transform="translate(0,0)"/>
<path d="" fill="#72B4FE" transform="translate(0,0)"/>
<path d="" fill="#A1D1FD" transform="translate(0,0)"/>
<path d="" fill="#B0D1FD" transform="translate(0,0)"/>
<path d="" fill="#B8D5FC" transform="translate(0,0)"/>
<path d="" fill="#70B3FF" transform="translate(0,0)"/>
<path d="" fill="#D4E7FF" transform="translate(0,0)"/>
<path d="" fill="#D9E9FE" transform="translate(0,0)"/>
<path d="" fill="#6AAEFF" transform="translate(0,0)"/>
<path d="" fill="#DCEAFC" transform="translate(0,0)"/>
<path d="" fill="#6AAFFF" transform="translate(0,0)"/>
<path d="" fill="#469CFA" transform="translate(0,0)"/>
<path d="" fill="#DBE9FF" transform="translate(0,0)"/>
<path d="" fill="#DBEAFF" transform="translate(0,0)"/>
<path d="" fill="#D9E9FE" transform="translate(0,0)"/>
<path d="" fill="#75B6FD" transform="translate(0,0)"/>
<path d="" fill="#DFEEFF" transform="translate(0,0)"/>
<path d="" fill="#DEECFF" transform="translate(0,0)"/>
<path d="" fill="#E3EBFF" transform="translate(0,0)"/>
<path d="" fill="#E2EDFF" transform="translate(0,0)"/>
<path d="" fill="#E1EDFF" transform="translate(0,0)"/>
<path d="" fill="#499BFC" transform="translate(0,0)"/>
<path d="" fill="#D1E4FE" transform="translate(0,0)"/>
<path d="" fill="#69B1FE" transform="translate(0,0)"/>
<path d="" fill="#E4EEFF" transform="translate(0,0)"/>
<path d="" fill="#6CB3FF" transform="translate(0,0)"/>
<path d="" fill="#75B6FF" transform="translate(0,0)"/>
<path d="" fill="#74B3FF" transform="translate(0,0)"/>
<path d="" fill="#6AB2FD" transform="translate(0,0)"/>
<path d="" fill="#E5EEFF" transform="translate(0,0)"/>
<path d="" fill="#E4EEFF" transform="translate(0,0)"/>
<path d="" fill="#49A0F7" transform="translate(0,0)"/>
<path d="" fill="#D2E6FF" transform="translate(0,0)"/>
<path d="" fill="#6BB0FF" transform="translate(0,0)"/>
<path d="" fill="#D1E3FE" transform="translate(0,0)"/>
<path d="" fill="#E1EDFF" transform="translate(0,0)"/>
<path d="" fill="#4AA0F8" transform="translate(0,0)"/>
<path d="" fill="#E6EFFF" transform="translate(0,0)"/>
<path d="" fill="#E2EEFE" transform="translate(0,0)"/>
<path d="" fill="#75B3FE" transform="translate(0,0)"/>
<path d="" fill="#E5F0FF" transform="translate(0,0)"/>
<path d="" fill="#E0EBFF" transform="translate(0,0)"/>
<path d="" fill="#E8EFFD" transform="translate(0,0)"/>
<path d="" fill="#E3EFFF" transform="translate(0,0)"/>
<path d="" fill="#E8F2FF" transform="translate(0,0)"/>
<path d="" fill="#E7F2FF" transform="translate(0,0)"/>
<path d="" fill="#E5F1FF" transform="translate(0,0)"/>
<path d="" fill="#E5EEFF" transform="translate(0,0)"/>
<path d="" fill="#E2ECFD" transform="translate(0,0)"/>
<path d="" fill="#E8F1FF" transform="translate(0,0)"/>
<path d="" fill="#E1F0FE" transform="translate(0,0)"/>
<path d="" fill="#E3EDFD" transform="translate(0,0)"/>
<path d="" fill="#E5F0FF" transform="translate(0,0)"/>
<path d="" fill="#E2EDFF" transform="translate(0,0)"/>
<path d="" fill="#6AB2FF" transform="translate(0,0)"/>
<path d="" fill="#E4EDFF" transform="translate(0,0)"/>
<path d="" fill="#E3F0FF" transform="translate(0,0)"/>
<path d="" fill="#E8F0FF" transform="translate(0,0)"/>
<path d="" fill="#E5EDFF" transform="translate(0,0)"/>
<path d="" fill="#E7EFFE" transform="translate(0,0)"/>
<path d="" fill="#E5EEFF" transform="translate(0,0)"/>
<path d="" fill="#E4F0FE" transform="translate(0,0)"/>
<path d="" fill="#E6EFFE" transform="translate(0,0)"/>
<path d="" fill="#64AEFF" transform="translate(0,0)"/>
<path d="" fill="#E1EDFE" transform="translate(0,0)"/>
<path d="" fill="#E4F0FF" transform="translate(0,0)"/>
<path d="" fill="#68B0FF" transform="translate(0,0)"/>
<path d="" fill="#E5F1FE" transform="translate(0,0)"/>
<path d="" fill="#E4F0FF" transform="translate(0,0)"/>
<path d="" fill="#479CF7" transform="translate(0,0)"/>
<path d="" fill="#E7EDFF" transform="translate(0,0)"/>
<path d="" fill="#E4EDFC" transform="translate(0,0)"/>
<path d="" fill="#6BB3FF" transform="translate(0,0)"/>
<path d="" fill="#E4ECFE" transform="translate(0,0)"/>
<path d="" fill="#E6EFFF" transform="translate(0,0)"/>
<path d="" fill="#E2EDFE" transform="translate(0,0)"/>
<path d="" fill="#489BF6" transform="translate(0,0)"/>
<path d="" fill="#68B1FF" transform="translate(0,0)"/>
<path d="" fill="#E7F0FF" transform="translate(0,0)"/>
<path d="" fill="#E4EFFF" transform="translate(0,0)"/>
<path d="" fill="#CEE3FF" transform="translate(0,0)"/>
<path d="" fill="#E4EFFF" transform="translate(0,0)"/>
<path d="" fill="#499BF5" transform="translate(0,0)"/>
<path d="" fill="#E4EDFF" transform="translate(0,0)"/>
<path d="" fill="#E2EFFF" transform="translate(0,0)"/>
<path d="" fill="#4DA0FA" transform="translate(0,0)"/>
<path d="" fill="#E7EEFD" transform="translate(0,0)"/>
<path d="" fill="#E6F1FD" transform="translate(0,0)"/>
<path d="" fill="#E5F0FF" transform="translate(0,0)"/>
<path d="" fill="#E5F1FD" transform="translate(0,0)"/>
<path d="" fill="#66ADFF" transform="translate(0,0)"/>
<path d="" fill="#6DB3FF" transform="translate(0,0)"/>
<path d="" fill="#E5EFFF" transform="translate(0,0)"/>
<path d="" fill="#E3EFFF" transform="translate(0,0)"/>
<path d="" fill="#E7F1FF" transform="translate(0,0)"/>
<path d="" fill="#E6EFFE" transform="translate(0,0)"/>
<path d="" fill="#E6EEFE" transform="translate(0,0)"/>
<path d="" fill="#E5F0FE" transform="translate(0,0)"/>
<path d="" fill="#E6F1FF" transform="translate(0,0)"/>
<path d="" fill="#4C9FF8" transform="translate(0,0)"/>
<path d="" fill="#65AFFF" transform="translate(0,0)"/>
<path d="" fill="#4DA0F5" transform="translate(0,0)"/>
<path d="" fill="#6AAEFE" transform="translate(0,0)"/>
<path d="" fill="#E4EEFF" transform="translate(0,0)"/>
<path d="" fill="#E4EEFD" transform="translate(0,0)"/>
<path d="" fill="#E3EEFF" transform="translate(0,0)"/>
<path d="" fill="#E0ECFC" transform="translate(0,0)"/>
<path d="" fill="#4699F8" transform="translate(0,0)"/>
<path d="" fill="#E4EEFE" transform="translate(0,0)"/>
<path d="" fill="#E3EFFF" transform="translate(0,0)"/>
<path d="" fill="#E8F1FF" transform="translate(0,0)"/>
<path d="" fill="#E6EFFF" transform="translate(0,0)"/>
<path d="" fill="#E7EFFE" transform="translate(0,0)"/>
<path d="" fill="#E6EFFF" transform="translate(0,0)"/>
<path d="" fill="#E1EDFD" transform="translate(0,0)"/>
<path d="" fill="#D0E5FF" transform="translate(0,0)"/>
<path d="" fill="#4B9FF7" transform="translate(0,0)"/>
<path d="" fill="#E6F0FF" transform="translate(0,0)"/>
<path d="" fill="#E6F0FE" transform="translate(0,0)"/>
<path d="" fill="#D5E5FA" transform="translate(0,0)"/>
<path d="" fill="#E4EFFE" transform="translate(0,0)"/>
<path d="" fill="#E3ECFC" transform="translate(0,0)"/>
<path d="" fill="#E0EBFF" transform="translate(0,0)"/>
<path d="" fill="#DFEBFE" transform="translate(0,0)"/>
<path d="" fill="#E1EEFE" transform="translate(0,0)"/>
<path d="" fill="#E5EEFF" transform="translate(0,0)"/>
<path d="" fill="#DDEDFF" transform="translate(0,0)"/>
<path d="" fill="#CFE3FF" transform="translate(0,0)"/>
<path d="" fill="#4A9CF8" transform="translate(0,0)"/>
<path d="" fill="#D2E7FD" transform="translate(0,0)"/>
<path d="" fill="#E5F1FD" transform="translate(0,0)"/>
<path d="" fill="#489DF6" transform="translate(0,0)"/>
<path d="" fill="#CEE6FD" transform="translate(0,0)"/>
<path d="" fill="#E3ECFD" transform="translate(0,0)"/>
<path d="" fill="#E0EDFD" transform="translate(0,0)"/>
<path d="" fill="#E4EDFF" transform="translate(0,0)"/>
<path d="" fill="#5BAAFF" transform="translate(0,0)"/>
<path d="" fill="#479AF7" transform="translate(0,0)"/>
<path d="" fill="#60A7FF" transform="translate(0,0)"/>
<path d="" fill="#DFEDFD" transform="translate(0,0)"/>
<path d="" fill="#E4EDFD" transform="translate(0,0)"/>
<path d="" fill="#E5EFFF" transform="translate(0,0)"/>
<path d="" fill="#E5EDFF" transform="translate(0,0)"/>
<path d="" fill="#D4E6FC" transform="translate(0,0)"/>
<path d="" fill="#CEE4FF" transform="translate(0,0)"/>
<path d="" fill="#65A8FE" transform="translate(0,0)"/>
<path d="" fill="#4C9CF8" transform="translate(0,0)"/>
<path d="" fill="#E2EEFF" transform="translate(0,0)"/>
<path d="" fill="#D4E6F9" transform="translate(0,0)"/>
<path d="" fill="#DAE8FD" transform="translate(0,0)"/>
<path d="" fill="#61ABFD" transform="translate(0,0)"/>
<path d="" fill="#6FAFFE" transform="translate(0,0)"/>
<path d="" fill="#E5EDFC" transform="translate(0,0)"/>
<path d="" fill="#D5E2FC" transform="translate(0,0)"/>
<path d="" fill="#4899F4" transform="translate(0,0)"/>
<path d="" fill="#E0EBFE" transform="translate(0,0)"/>
<path d="" fill="#69B0FF" transform="translate(0,0)"/>
<path d="" fill="#6CAEFE" transform="translate(0,0)"/>
<path d="" fill="#67AEFF" transform="translate(0,0)"/>
<path d="" fill="#68B0FE" transform="translate(0,0)"/>
<path d="" fill="#DAE8FF" transform="translate(0,0)"/>
<path d="" fill="#D6E7FE" transform="translate(0,0)"/>
<path d="" fill="#6CB2FF" transform="translate(0,0)"/>
<path d="" fill="#DBEBFF" transform="translate(0,0)"/>
<path d="" fill="#4799F2" transform="translate(0,0)"/>
<path d="" fill="#65ABFF" transform="translate(0,0)"/>
<path d="" fill="#D3E6FF" transform="translate(0,0)"/>
<path d="" fill="#D3E5FF" transform="translate(0,0)"/>
<path d="" fill="#4697EE" transform="translate(0,0)"/>
<path d="" fill="#73B5FF" transform="translate(0,0)"/>
<path d="" fill="#66AFFE" transform="translate(0,0)"/>
<path d="" fill="#6BACFD" transform="translate(0,0)"/>
<path d="" fill="#6EB1FE" transform="translate(0,0)"/>
<path d="" fill="#6EAFFF" transform="translate(0,0)"/>
<path d="" fill="#6CADFE" transform="translate(0,0)"/>
<path d="" fill="#4698EF" transform="translate(0,0)"/>
<path d="" fill="#72B0FF" transform="translate(0,0)"/>
<path d="" fill="#71B3FC" transform="translate(0,0)"/>
<path d="" fill="#70AFFC" transform="translate(0,0)"/>
<path d="" fill="#72B3FF" transform="translate(0,0)"/>
<path d="" fill="#D0E3FD" transform="translate(0,0)"/>
<path d="" fill="#D2E4FB" transform="translate(0,0)"/>
<path d="" fill="#6AB0FC" transform="translate(0,0)"/>
<path d="" fill="#D3E7FE" transform="translate(0,0)"/>
<path d="" fill="#D6E7FE" transform="translate(0,0)"/>
<path d="" fill="#6DAFFF" transform="translate(0,0)"/>
<path d="" fill="#D7EBFC" transform="translate(0,0)"/>
<path d="" fill="#6FAEFC" transform="translate(0,0)"/>
<path d="" fill="#D4E6FD" transform="translate(0,0)"/>
<path d="" fill="#4D94E8" transform="translate(0,0)"/>
<path d="" fill="#6CB2FD" transform="translate(0,0)"/>
<path d="" fill="#69AEFF" transform="translate(0,0)"/>
<path d="" fill="#6BACFF" transform="translate(0,0)"/>
<path d="" fill="#7BB6FC" transform="translate(0,0)"/>
<path d="" fill="#D7E6FD" transform="translate(0,0)"/>
<path d="" fill="#4995F1" transform="translate(0,0)"/>
<path d="" fill="#74AFFD" transform="translate(0,0)"/>
<path d="" fill="#4797F0" transform="translate(0,0)"/>
<path d="" fill="#D8E9FF" transform="translate(0,0)"/>
<path d="" fill="#D5E6FE" transform="translate(0,0)"/>
<path d="" fill="#D1E5FE" transform="translate(0,0)"/>
<path d="" fill="#D7E8FC" transform="translate(0,0)"/>
<path d="" fill="#D3E4FE" transform="translate(0,0)"/>
<path d="" fill="#71B0FF" transform="translate(0,0)"/>
<path d="" fill="#70B1FF" transform="translate(0,0)"/>
<path d="" fill="#D7E5FF" transform="translate(0,0)"/>
<path d="" fill="#4D96F1" transform="translate(0,0)"/>
<path d="" fill="#D9E8FE" transform="translate(0,0)"/>
<path d="" fill="#4A9CF3" transform="translate(0,0)"/>
<path d="" fill="#D5E7FE" transform="translate(0,0)"/>
<path d="" fill="#4596F6" transform="translate(0,0)"/>
<path d="" fill="#4A9CF3" transform="translate(0,0)"/>
<path d="" fill="#73B3FD" transform="translate(0,0)"/>
<path d="" fill="#D8E6FF" transform="translate(0,0)"/>
<path d="" fill="#67AFFE" transform="translate(0,0)"/>
<path d="" fill="#70B1FF" transform="translate(0,0)"/>
<path d="" fill="#D4E4FE" transform="translate(0,0)"/>
<path d="" fill="#D3E5FF" transform="translate(0,0)"/>
<path d="" fill="#6CAFFF" transform="translate(0,0)"/>
<path d="" fill="#4993EE" transform="translate(0,0)"/>
<path d="" fill="#CFE5FE" transform="translate(0,0)"/>
<path d="" fill="#4597F6" transform="translate(0,0)"/>
<path d="" fill="#DAEAFB" transform="translate(0,0)"/>
<path d="" fill="#4896F5" transform="translate(0,0)"/>
<path d="" fill="#73B4FF" transform="translate(0,0)"/>
<path d="" fill="#74AFFD" transform="translate(0,0)"/>
<path d="" fill="#6CB1FF" transform="translate(0,0)"/>
<path d="" fill="#D4E4FF" transform="translate(0,0)"/>
<path d="" fill="#70AFF9" transform="translate(0,0)"/>
<path d="" fill="#7AB4FC" transform="translate(0,0)"/>
<path d="" fill="#4A9AF7" transform="translate(0,0)"/>
<path d="" fill="#79B2FA" transform="translate(0,0)"/>
<path d="" fill="#D5E8FE" transform="translate(0,0)"/>
<path d="" fill="#75B4FF" transform="translate(0,0)"/>
<path d="" fill="#77B6FD" transform="translate(0,0)"/>
<path d="" fill="#D4E7FC" transform="translate(0,0)"/>
<path d="" fill="#4C9AF6" transform="translate(0,0)"/>
<path d="" fill="#DAE8FF" transform="translate(0,0)"/>
<path d="" fill="#4699F8" transform="translate(0,0)"/>
<path d="" fill="#D2E5FF" transform="translate(0,0)"/>
<path d="" fill="#479AF5" transform="translate(0,0)"/>
<path d="" fill="#4E98F4" transform="translate(0,0)"/>
<path d="" fill="#74B6FF" transform="translate(0,0)"/>
<path d="" fill="#D2E4FD" transform="translate(0,0)"/>
<path d="" fill="#75B4FF" transform="translate(0,0)"/>
<path d="" fill="#6AAFFF" transform="translate(0,0)"/>
<path d="" fill="#CDE3FF" transform="translate(0,0)"/>
<path d="" fill="#D4E9FF" transform="translate(0,0)"/>
<path d="" fill="#4898F8" transform="translate(0,0)"/>
<path d="" fill="#CAE0FF" transform="translate(0,0)"/>
<path d="" fill="#D4E7FE" transform="translate(0,0)"/>
<path d="" fill="#6DAEFA" transform="translate(0,0)"/>
<path d="" fill="#71AFFD" transform="translate(0,0)"/>
<path d="" fill="#64ACFD" transform="translate(0,0)"/>
<path d="" fill="#6CAEFF" transform="translate(0,0)"/>
<path d="" fill="#D1E6FF" transform="translate(0,0)"/>
<path d="" fill="#71B2FD" transform="translate(0,0)"/>
<path d="" fill="#D0E5FF" transform="translate(0,0)"/>
<path d="" fill="#D1E4FE" transform="translate(0,0)"/>
<path d="" fill="#73B3FF" transform="translate(0,0)"/>
<path d="" fill="#75B2FF" transform="translate(0,0)"/>
<path d="" fill="#71B1FC" transform="translate(0,0)"/>
<path d="" fill="#72AFFC" transform="translate(0,0)"/>
<path d="" fill="#78B3FF" transform="translate(0,0)"/>
<path d="" fill="#69B2FD" transform="translate(0,0)"/>
<path d="" fill="#4E9AF8" transform="translate(0,0)"/>
<path d="" fill="#6DB1FF" transform="translate(0,0)"/>
<path d="" fill="#425D7F" transform="translate(0,0)"/>
<path d="" fill="#509BF4" transform="translate(0,0)"/>
<path d="" fill="#509BF2" transform="translate(0,0)"/>
<path d="" fill="#72AFFD" transform="translate(0,0)"/>
<path d="" fill="#4D9AF4" transform="translate(0,0)"/>
<path d="" fill="#4C99F2" transform="translate(0,0)"/>
<path d="" fill="#70B2FF" transform="translate(0,0)"/>
<path d="" fill="#72B3FF" transform="translate(0,0)"/>
<path d="" fill="#7EB8FE" transform="translate(0,0)"/>
<path d="" fill="#7EB8FD" transform="translate(0,0)"/>
<path d="" fill="#6BABFF" transform="translate(0,0)"/>
<path d="" fill="#6CAEFF" transform="translate(0,0)"/>
<path d="" fill="#6CAEFF" transform="translate(0,0)"/>
<path d="" fill="#4898F9" transform="translate(0,0)"/>
<path d="" fill="#77B4FF" transform="translate(0,0)"/>
<path d="" fill="#4C99F4" transform="translate(0,0)"/>
<path d="" fill="#3B3D3F" transform="translate(0,0)"/>
<path d="" fill="#509DF2" transform="translate(0,0)"/>
<path d="" fill="#64ADFD" transform="translate(0,0)"/>
<path d="" fill="#68AEFD" transform="translate(0,0)"/>
<path d="" fill="#6EADFD" transform="translate(0,0)"/>
<path d="" fill="#67AEFD" transform="translate(0,0)"/>
<path d="" fill="#509DF4" transform="translate(0,0)"/>
<path d="" fill="#4698F8" transform="translate(0,0)"/>
<path d="" fill="#68ACFE" transform="translate(0,0)"/>
<path d="" fill="#69ADFE" transform="translate(0,0)"/>
<path d="" fill="#4999F8" transform="translate(0,0)"/>
<path d="" fill="#4B9AF8" transform="translate(0,0)"/>
<path d="" fill="#4D97F5" transform="translate(0,0)"/>
<path d="" fill="#469AF9" transform="translate(0,0)"/>
<path d="" fill="#4B9AFA" transform="translate(0,0)"/>
<path d="" fill="#59A3FC" transform="translate(0,0)"/>
<path d="" fill="#5EA8FD" transform="translate(0,0)"/>
<path d="" fill="#4B98F4" transform="translate(0,0)"/>
<path d="" fill="#4C9AF7" transform="translate(0,0)"/>
<path d="" fill="#4C99F6" transform="translate(0,0)"/>
<path d="" fill="#4F9AF2" transform="translate(0,0)"/>
<path d="" fill="#499BFA" transform="translate(0,0)"/>
<path d="" fill="#469DF8" transform="translate(0,0)"/>
<path d="" fill="#499CF5" transform="translate(0,0)"/>
<path d="" fill="#4A98F4" transform="translate(0,0)"/>
<path d="" fill="#4F9FF7" transform="translate(0,0)"/>
<path d="" fill="#4997F1" transform="translate(0,0)"/>
<path d="" fill="#4997F4" transform="translate(0,0)"/>
<path d="" fill="#4D99F7" transform="translate(0,0)"/>
<path d="" fill="#4795F4" transform="translate(0,0)"/>
<path d="" fill="#4999F3" transform="translate(0,0)"/>
<path d="" fill="#4B9AF4" transform="translate(0,0)"/>
<path d="" fill="#4D97F1" transform="translate(0,0)"/>
<path d="" fill="#4D9DF4" transform="translate(0,0)"/>
<path d="" fill="#4699F3" transform="translate(0,0)"/>
<path d="" fill="#4E98F2" transform="translate(0,0)"/>
<path d="" fill="#4899F4" transform="translate(0,0)"/>
<path d="" fill="#4A9DF6" transform="translate(0,0)"/>
<path d="" fill="#4B98F0" transform="translate(0,0)"/>
<path d="" fill="#4A99F0" transform="translate(0,0)"/>
<path d="" fill="#4997EF" transform="translate(0,0)"/>
<path d="" fill="#4998F1" transform="translate(0,0)"/>
<path d="" fill="#3E3D3E" transform="translate(0,0)"/>
</svg>
